<?xml version="1.0" encoding="UTF-8"?>
<svg version="1.1" xmlns="http://www.w3.org/2000/svg" width="420" height="422">
<path d="M0 0 C138.6 0 277.2 0 420 0 C420 139.26 420 278.52 420 422 C281.4 422 142.8 422 0 422 C0 282.74 0 143.48 0 0 Z " fill="#1B1F22" transform="translate(0,0)"/>
<path d="M0 0 C4.01546976 -0.47803211 5.65648955 -0.23134377 9.0625 2.0625 C12.26210866 5.00039924 14.59791309 8.39686963 17 12 C17 10.35 17 8.7 17 7 C24.11966475 12.86325333 28.94854845 22.8490857 30 32 C30.85016962 42.05591254 30.06011406 51.50824124 23.90625 59.83203125 C18.91762012 65.51075493 13.50023657 70.10432225 7.1875 74.25 C6.00220703 75.03117187 6.00220703 75.03117187 4.79296875 75.828125 C4.20128906 76.21484375 3.60960937 76.6015625 3 77 C3.45003005 82.8044692 5.92475859 86.69144499 8.9375 91.5 C13.77190714 99.28154925 16.96995962 105.62105164 16 115 C15.34448334 117.79070578 14.3561539 120.35902262 13.25 123 C12.952146 123.74040527 12.65429199 124.48081055 12.34741211 125.24365234 C7.75028009 136.38855767 2.32807919 147.19149821 -3 158 C-4.92498089 156.07501911 -5.72591672 154.76397661 -6.8828125 152.3515625 C-7.42143921 151.22959473 -7.42143921 151.22959473 -7.97094727 150.08496094 C-10.01085884 145.73671702 -12.01732836 141.37462842 -14 137 C-14.39687012 136.13793945 -14.79374023 135.27587891 -15.20263672 134.38769531 C-25.5832872 111.57889454 -25.5832872 111.57889454 -21.1796875 99.80712891 C-19.10247393 95.01788403 -16.64651513 90.49553127 -14 86 C-13.01 86 -12.02 86 -11 86 C-7.05235867 91.84455989 -7.81595754 97.5393168 -8.0625 104.375 C-8.28132192 114.9538572 -7.39638134 123.96248013 -4 134 C-3.34 134 -2.68 134 -2 134 C-1.896875 133.0925 -1.79375 132.185 -1.6875 131.25 C-1.20722948 127.76803875 -0.34915367 124.45539974 0.5625 121.0625 C4.0277785 107.20138599 -0.60581226 96.32126047 -6.73046875 83.77734375 C-9.61350887 77.47013906 -10.19602293 70.3662042 -8.3515625 63.6328125 C-5.28586857 56.26990658 -0.3221302 49.98020873 4.53515625 43.72265625 C4.9739209 43.15708008 5.41268555 42.59150391 5.86474609 42.00878906 C7.12535241 40.39219757 8.39640039 38.78376454 9.66796875 37.17578125 C14.24495491 31.15976033 14.24495491 31.15976033 16.1875 24.0625 C14.730357 20.30460489 12.63689141 18.01215372 9.9140625 15.08203125 C5.78255129 10.58795885 1.84408901 5.90108484 0 0 Z " fill="#F6F7F7" transform="translate(218,179)"/>
<path d="M0 0 C6.875 2.75 6.875 2.75 8 5 C9.98 4.67 11.96 4.34 14 4 C14.39832031 4.68707031 14.79664063 5.37414062 15.20703125 6.08203125 C15.73683594 6.98308594 16.26664063 7.88414062 16.8125 8.8125 C17.59560547 10.15248047 17.59560547 10.15248047 18.39453125 11.51953125 C19.86940652 13.98801278 19.86940652 13.98801278 21.69921875 15.69921875 C22.12847656 16.12847656 22.55773437 16.55773437 23 17 C23 17.66 23 18.32 23 19 C23.598125 19.226875 24.19625 19.45375 24.8125 19.6875 C27.69421235 21.41652741 28.67072428 22.92167728 30 26 C29.20569307 35.62435227 22.28063946 42.86125257 15.9921875 49.67578125 C9.04869885 57.77651801 4.42215903 66.12783766 4.61328125 76.93359375 C5.54755867 84.34175309 9.11785985 91.08245878 12.1875 97.8125 C16.89779518 108.26287149 16.59459411 117.11037425 13.5 128 C13.26152344 128.87011719 13.02304688 129.74023438 12.77734375 130.63671875 C12.193891 132.76048675 11.60133866 134.88124079 11 137 C10.34 137 9.68 137 9 137 C8.34956281 135.27255984 7.70485156 133.5429631 7.0625 131.8125 C6.70285156 130.84957031 6.34320313 129.88664063 5.97265625 128.89453125 C4.38341261 124.16509537 3.89272189 120.05566895 4.04296875 115.0703125 C4.06423828 113.94496094 4.08550781 112.81960938 4.10742188 111.66015625 C4.16063711 109.31089851 4.22566698 106.96187752 4.30273438 104.61328125 C4.41019595 97.64817908 3.88611789 93.76376693 0 88 C0.25 84.0625 0.25 84.0625 1 81 C-0.98 81.99 -0.98 81.99 -3 83 C-3 82.01 -3 81.02 -3 80 C-3.55945313 79.76023437 -4.11890625 79.52046875 -4.6953125 79.2734375 C-13.61755613 74.34351983 -19.53787781 65.35156251 -23 56 C-25.12353477 45.35578195 -23.69515589 39.26306976 -18 30 C-15.99152532 27.16850374 -13.85150699 24.44629686 -11.69189453 21.72924805 C-6.36719025 15.02028243 -1.83571241 8.44427711 0 0 Z " fill="#1F2226" transform="translate(205,176)"/>
<path d="M0 0 C0.90121582 0.48243164 1.80243164 0.96486328 2.73095703 1.46191406 C9.17944607 4.92875312 15.59853105 8.44717181 22 12 C22 12.99 22 13.98 22 15 C18.4854733 17.07189937 14.96561003 19.13440401 11.44091797 21.18896484 C10.24676985 21.88670183 9.05401599 22.58683152 7.86279297 23.28955078 C-14.46687216 36.4544753 -14.46687216 36.4544753 -26.74609375 33.29296875 C-39.85435517 28.74172584 -52.16668774 21.15520948 -64 14 C-62.44617948 10.89235897 -59.88321257 10.41062384 -56.75 9 C-55.39397398 8.38403785 -54.03854027 7.76677064 -52.68359375 7.1484375 C-51.94093262 6.81038086 -51.19827148 6.47232422 -50.43310547 6.12402344 C-47.76677755 4.89225806 -45.11886905 3.62595297 -42.47265625 2.3515625 C-41.53518555 1.90039062 -40.59771484 1.44921875 -39.63183594 0.984375 C-37.77329361 0.08825761 -35.91584311 -0.81012828 -34.05957031 -1.7109375 C-32.77131348 -2.3296875 -32.77131348 -2.3296875 -31.45703125 -2.9609375 C-30.69366455 -3.33009277 -29.93029785 -3.69924805 -29.14379883 -4.07958984 C-18.45786416 -8.667447 -9.71111153 -5.21062584 0 0 Z " fill="#F4F5F5" transform="translate(147,188)"/>
<path d="M0 0 C0.94109619 0.49282471 1.88219238 0.98564941 2.85180664 1.4934082 C3.84124268 1.98945557 4.83067871 2.48550293 5.85009766 2.99658203 C7.84689812 4.00007161 9.83911819 5.01273268 11.82641602 6.03491211 C14.44437402 7.38037676 17.07324069 8.69937791 19.71118164 10.00512695 C23.37136171 11.8169023 27.02099499 13.64795716 30.66430664 15.4934082 C27.70161317 18.72868536 24.7541392 20.75921948 20.90258789 22.84106445 C19.78303711 23.4462793 18.66348633 24.05149414 17.51000977 24.67504883 C16.92872314 24.98418213 16.34743652 25.29331543 15.74853516 25.61181641 C13.99404027 26.54672501 12.24805178 27.49754028 10.50219727 28.44848633 C0.97775631 33.55690143 -8.27153858 38.43397985 -19.33569336 36.4934082 C-24.28659476 34.66480894 -28.78185337 32.1317523 -33.33569336 29.4934082 C-34.18631348 29.01129883 -35.03693359 28.52918945 -35.91333008 28.0324707 C-38.68989241 26.45399722 -41.45252329 24.85378352 -44.21069336 23.2434082 C-45.10973389 22.72423828 -46.00877441 22.20506836 -46.93505859 21.67016602 C-47.76593994 21.17355469 -48.59682129 20.67694336 -49.45288086 20.1652832 C-50.57605713 19.50157715 -50.57605713 19.50157715 -51.72192383 18.82446289 C-52.52073975 18.16559082 -52.52073975 18.16559082 -53.33569336 17.4934082 C-53.33569336 16.5034082 -53.33569336 15.5134082 -53.33569336 14.4934082 C-51.37866211 13.02075195 -51.37866211 13.02075195 -48.52319336 11.4309082 C-46.90670898 10.52791992 -46.90670898 10.52791992 -45.25756836 9.60668945 C-43.95160299 8.89980652 -42.64417666 8.19561932 -41.33569336 7.4934082 C-40.5487207 7.06979004 -39.76174805 6.64617187 -38.95092773 6.2097168 C-34.7652162 3.9646094 -30.57042132 1.73670771 -26.36303711 -0.4675293 C-25.65912842 -0.83668457 -24.95521973 -1.20583984 -24.22998047 -1.58618164 C-15.97801431 -5.59570767 -7.89450053 -3.90549685 0 0 Z " fill="#F5F5F6" transform="translate(312.335693359375,185.506591796875)"/>
<path d="M0 0 C3 1 3 1 4.14746094 2.8190918 C4.50614258 3.60453369 4.86482422 4.38997559 5.234375 5.19921875 C5.64051025 6.07263916 6.04664551 6.94605957 6.46508789 7.84594727 C6.88910889 8.78365967 7.31312988 9.72137207 7.75 10.6875 C8.63809823 12.60733783 9.52742576 14.52660748 10.41796875 16.4453125 C10.85415527 17.39051758 11.2903418 18.33572266 11.73974609 19.30957031 C13.95003174 24.02815766 16.33672849 28.65364942 18.72265625 33.28515625 C19.80986095 35.59588183 20.53760535 37.50820661 21 40 C21.18755859 40.99773437 21.18755859 40.99773437 21.37890625 42.015625 C22.34474067 53.77003537 13.85452053 65.0031917 7.75 74.5 C7.1324585 75.47972778 7.1324585 75.47972778 6.50244141 76.47924805 C5.296875 78.28125 5.296875 78.28125 3 81 C1.68 81 0.36 81 -1 81 C-2.83261755 78.56255818 -4.35442834 76.24746056 -5.875 73.625 C-6.31263672 72.89490723 -6.75027344 72.16481445 -7.20117188 71.41259766 C-8.07582726 69.95107047 -8.94474871 68.48609498 -9.80761719 67.01757812 C-11.32904901 64.44323075 -12.91939286 61.91331492 -14.5 59.375 C-18.22885155 53.04437914 -19.93653181 47.42239502 -19 40 C-17.66446447 35.98005966 -15.86244687 32.23729352 -14 28.4375 C-13.25592896 26.86935547 -13.25592896 26.86935547 -12.49682617 25.26953125 C-11.0183416 22.16926027 -9.51472802 19.08270226 -8 16 C-7.56896973 15.11973145 -7.13793945 14.23946289 -6.69384766 13.33251953 C-4.50049772 8.86853272 -2.27103819 4.42494548 0 0 Z " fill="#F4F5F5" transform="translate(214,72)"/>
<path d="M0 0 C3.63549188 1.17102898 7.1387191 2.42964606 10.609375 4.0234375 C11.86621094 4.59578125 11.86621094 4.59578125 13.1484375 5.1796875 C14.00695312 5.57414062 14.86546875 5.96859375 15.75 6.375 C20.90718662 8.74068193 26.05733242 11.04903779 31.34375 13.11328125 C34.68647189 14.43412157 37.75460601 15.79815559 40.75 17.8125 C41.42546875 18.25207031 42.1009375 18.69164063 42.796875 19.14453125 C49.37384878 24.68364924 52.59879408 30.83355587 55.75 38.75 C56.51312802 40.62081216 57.27865082 42.49064973 58.046875 44.359375 C58.37526367 45.17889648 58.70365234 45.99841797 59.04199219 46.84277344 C60.02567992 49.22187799 60.02567992 49.22187799 62 52 C62 53.32 62 54.64 62 56 C58.17687494 57.09232145 56.53875803 57.27487654 52.9375 55.4375 C46.16566854 49.81832071 41.86362621 42.55072752 37.859375 34.7890625 C34.55654468 28.71836733 30.05829753 26.0978889 24 23 C23.19949219 22.58492187 22.39898437 22.16984375 21.57421875 21.7421875 C19.72803683 20.8043402 17.86573608 19.89831737 16 19 C18.95328623 33.1486235 18.95328623 33.1486235 28.38671875 43.4296875 C32.35493221 45.81417451 36.42527798 47.99673652 40.54418945 50.109375 C51.34788647 55.66145118 51.34788647 55.66145118 53.1875 59.4375 C52.91179804 63.20542674 50.66703013 64.49207057 48 67 C44.17765049 66.0139525 40.36983113 64.97990415 36.5625 63.9375 C35.49322266 63.66228516 34.42394531 63.38707031 33.32226562 63.10351562 C24.48464465 60.64411651 17.30172182 56.91886685 12.1875 49.0625 C8.94509088 42.42328133 7.55462982 35.17472485 6 28 C5.75040527 26.85611816 5.50081055 25.71223633 5.24365234 24.53369141 C3.46593019 16.36205667 1.72159861 8.18363106 0 0 Z " fill="#F5F5F4" transform="translate(128,105)"/>
<path d="M0 0 C-0.46930098 8.34982928 -1.94616438 16.38388502 -3.79150391 24.52514648 C-4.24944815 26.56004782 -4.68565153 28.59885285 -5.12109375 30.63867188 C-7.34106454 40.7206343 -10.02894839 50.73548587 -18.3671875 57.47265625 C-23.57251113 60.4923618 -29.37483864 61.90960941 -35.14990234 63.47558594 C-37.5609469 64.15900158 -39.89906431 65.00948139 -42.25 65.875 C-46.71631429 67.21489429 -46.71631429 67.21489429 -50 66 C-51.54809334 63.86215681 -52.08363513 62.68404642 -51.76123047 60.04711914 C-49.15461985 53.03735966 -37.80463917 49.05356092 -31.53515625 45.87695312 C-24.10203251 41.93245901 -19.28918839 37.28966478 -16.74414062 29.15039062 C-16.56044922 28.50263672 -16.37675781 27.85488281 -16.1875 27.1875 C-15.78598518 25.86823702 -15.38367772 24.54921493 -14.98046875 23.23046875 C-14.65691406 22.16441406 -14.33335937 21.09835938 -14 20 C-13.67 19.34 -13.34 18.68 -13 18 C-15.37995334 19.22025598 -17.75363448 20.45074851 -20.125 21.6875 C-20.79015625 22.02716797 -21.4553125 22.36683594 -22.140625 22.71679688 C-29.31951124 26.48219309 -34.26414162 30.59227825 -38.0625 37.875 C-38.74771473 39.12105109 -39.43519413 40.36585966 -40.125 41.609375 C-40.74375 42.72828125 -41.3625 43.8471875 -42 45 C-45.19122178 50.40331869 -48.25453205 53.48005791 -54 56 C-57.4375 56.25 -57.4375 56.25 -60 56 C-59.40020035 50.08066572 -57.13945609 45.03298306 -54.8125 39.625 C-54.25079102 38.26375 -54.25079102 38.26375 -53.67773438 36.875 C-47.99333397 23.56986044 -40.57609577 16.59619949 -27.19927979 11.12252808 C-25.26065611 10.34525873 -23.31821102 9.57821998 -21.375 8.8125 C-19.42073489 8.03064877 -17.46787338 7.24542659 -15.51577759 6.45817566 C-13.75164163 5.74854549 -11.98407323 5.04746564 -10.21630859 4.34692383 C-7.26429107 3.11067966 -3.17800833 0 0 0 Z " fill="#F5F6F5" transform="translate(300,105)"/>
<path d="M0 0 C2.63286784 2.44595024 4.83841127 5.13493564 7 8 C3.58927763 12.09109963 0.01025798 13.39971953 -4.875 15.0625 C-14.15266685 18.30710148 -20.46841496 20.77641982 -25 30 C-26.26669259 33.95663529 -27.21346631 37.92244379 -28 42 C-15.09595224 35.73589914 -7.59223329 30.25490771 0.125 18.125 C2.34238229 14.76069584 4.07768328 12.40801113 8 11 C10.8125 11.3125 10.8125 11.3125 13 12 C13.29021778 17.36902885 12.43975608 21.53291407 10.375 26.4375 C10.10284668 27.09347168 9.83069336 27.74944336 9.55029297 28.42529297 C5.25584136 38.40772716 0.01752173 43.96319136 -9.94042969 48.27246094 C-13.25877343 49.5769968 -16.59160192 50.83040207 -19.9375 52.0625 C-22.19745418 52.90530416 -24.45658604 53.75031697 -26.71484375 54.59765625 C-27.78460449 54.99871582 -28.85436523 55.39977539 -29.95654297 55.81298828 C-33.4662945 57.18186458 -36.88720647 58.69486158 -40.29516602 60.29858398 C-42 61 -42 61 -44 61 C-36.94150762 15.44295327 -36.94150762 15.44295327 -25.171875 6.328125 C-21.61567771 4.15347198 -18.02428036 3.00078426 -14 2 C-12.94232422 1.69449219 -12.94232422 1.69449219 -11.86328125 1.3828125 C-3.90397436 -0.83063284 -3.90397436 -0.83063284 0 0 Z " fill="#F5F6F6" transform="translate(172,233)"/>
<path d="M0 0 C1.67635284 0.30504584 3.34292472 0.66587258 5 1.0625 C6.05316406 1.30355469 7.10632813 1.54460937 8.19140625 1.79296875 C15.99678082 3.86415157 22.63806489 6.55814716 26.9934082 13.68896484 C29.99584466 19.26400329 31.5513194 25.0673704 33.0625 31.1875 C33.31854004 32.19852783 33.57458008 33.20955566 33.83837891 34.2512207 C39 54.82377989 39 54.82377989 39 61.0625 C32.17736082 58.84627904 25.51353954 56.23672049 18.83276367 53.63208008 C17.32261778 53.04533343 15.81089503 52.46262878 14.29760742 51.8840332 C12.09171564 51.04030059 9.89122628 50.18363902 7.69140625 49.32421875 C6.69108116 48.94580086 6.69108116 48.94580086 5.67054749 48.55973816 C-4.89337236 44.38163676 -9.96427209 37.94082035 -14.484375 27.69921875 C-18.43440802 17.90180538 -18.43440802 17.90180538 -18 13.0625 C-17 12.0625 -17 12.0625 -14.2578125 11.6796875 C-9.85326685 12.19724802 -8.71232392 13.85208787 -5.875 17.1875 C-5.04742187 18.13882813 -4.21984375 19.09015625 -3.3671875 20.0703125 C-1 23.0625 -1 23.0625 0.9921875 26.1171875 C4.85447506 31.78287781 9.29521086 35.1302389 15.1875 38.375 C15.81591797 38.73400391 16.44433594 39.09300781 17.09179688 39.46289062 C20.34531502 41.42160218 20.34531502 41.42160218 24 42.0625 C23.26391649 39.49525792 22.51186377 36.93459494 21.75 34.375 C21.54503906 33.65376953 21.34007812 32.93253906 21.12890625 32.18945312 C19.78917154 27.74396976 18.46308453 24.32014731 15 21.0625 C12.4229431 19.8792156 10.04867716 18.93269446 7.375 18.0625 C5.94378975 17.56424853 4.51409231 17.06163043 3.0859375 16.5546875 C2.39081055 16.3081543 1.69568359 16.06162109 0.97949219 15.80761719 C-3.18037817 14.24176564 -7.0997539 12.1813837 -11 10.0625 C-8.92026956 4.52276958 -6.65941229 -0.52542152 0 0 Z " fill="#F4F5F5" transform="translate(261,232.9375)"/>
<path d="M0 0 C0.66 0.33 1.32 0.66 2 1 C4.38218745 8.14656234 3.07348975 13.68868323 -0.20239258 20.29101562 C-0.63060303 21.14373047 -1.05881348 21.99644531 -1.5 22.875 C-8.83305808 38.8048057 -6.53890335 52.69896765 -2.875 69.390625 C-2.03735678 73.35961418 -1.8249635 76.95228083 -2 81 C-12.08196326 75.37494741 -19.00993086 66.77760372 -23 56 C-25.12353477 45.35578195 -23.69515589 39.26306976 -18 30 C-15.99152532 27.16850374 -13.85150699 24.44629686 -11.69189453 21.72924805 C-6.36719025 15.02028243 -1.83571241 8.44427711 0 0 Z " fill="#F4F5F4" transform="translate(205,176)"/>
<path d="M0 0 C0.66 0.33 1.32 0.66 2 1 C1.835 2.010625 1.67 3.02125 1.5 4.0625 C0.31718685 13.8728914 0.32714064 23.22768416 3.33203125 32.6796875 C4.14606425 35.50738108 4.23718253 38.07474878 4 41 C3.34 41 2.68 41 2 41 C1.67 41.66 1.34 42.32 1 43 C0.01 43.495 0.01 43.495 -1 44 C-8.26304852 37.59142777 -13.76418425 28.58421069 -14.4375 18.8125 C-14.25999273 13.02379053 -12.5733339 7.59312097 -9 3 C-5.92540318 1.79175543 -3.26777517 1.69386856 0 2 C0 1.34 0 0.68 0 0 Z " fill="#F4F4F5" transform="translate(209,98)"/>
<path d="M0 0 C0.99 0.33 1.98 0.66 3 1 C3.495 2.485 3.495 2.485 4 4 C3.34 4 2.68 4 2 4 C2 5.65 2 7.3 2 9 C1.34 9 0.68 9 0 9 C0 7.35 0 5.7 0 4 C-3.83482114 3.78086736 -6.62842064 4.08640091 -10 6 C-10.43119141 7.09054688 -10.43119141 7.09054688 -10.87109375 8.203125 C-12.24608753 11.60968398 -14.1520744 14.14167915 -16.375 17.0625 C-17.14585937 18.08472656 -17.91671875 19.10695313 -18.7109375 20.16015625 C-23.0709232 25.56921701 -27.04860236 28.29173611 -33.25 31.25 C-33.99507812 31.61351562 -34.74015625 31.97703125 -35.5078125 32.3515625 C-37.33498087 33.24172145 -39.16701834 34.1218739 -41 35 C-42.74232708 29.77301876 -40.05716992 24.91850626 -38 20 C-34.3778817 13.18383193 -30.11448272 10.52653993 -23 8 C-21.93652344 7.57847656 -20.87304688 7.15695313 -19.77734375 6.72265625 C-4.26508395 0.57830535 -4.26508395 0.57830535 0 2 C0 1.34 0 0.68 0 0 Z " fill="#1E2225" transform="translate(185,241)"/>
<path d="M0 0 C-0.96623626 3.34413683 -1.97531243 6.67333988 -3 10 C-3.20496094 10.71414062 -3.40992188 11.42828125 -3.62109375 12.1640625 C-6.74091824 21.891714 -13.19505704 26.44338185 -21.9375 31 C-24.61282315 32.36134675 -27.29989653 33.68791372 -30 35 C-30.33 34.34 -30.66 33.68 -31 33 C-31.99 32.67 -32.98 32.34 -34 32 C-33.56429687 31.39414063 -33.12859375 30.78828125 -32.6796875 30.1640625 C-29.57040805 25.78953513 -26.6560292 21.45121822 -24.0625 16.75 C-19.87485724 9.69712798 -8.58307666 0 0 0 Z " fill="#1D2024" transform="translate(287,123)"/>
<path d="M0 0 C-0.125 1.828125 -0.125 1.828125 -1 4 C-9.70004517 8.9196684 -17.64222318 10.45542184 -27.15625 7.9375 C-33.21047464 6.24340422 -39.20034996 4.44315966 -45 2 C-45 1.34 -45 0.68 -45 0 C-28.96131966 -4.34947263 -15.91170312 -5.41675 0 0 Z " fill="#23272A" transform="translate(320,200)"/>
<path d="M0 0 C0 0.66 0 1.32 0 2 C-2.72770166 2.98341615 -5.45702105 3.96185053 -8.1875 4.9375 C-9.34088867 5.35418945 -9.34088867 5.35418945 -10.51757812 5.77929688 C-22.0499273 9.88738692 -29.83067332 9.83609466 -41.375 5.38671875 C-44 4 -44 4 -45 1 C-29.20964551 -6.34435092 -16.24063886 -4.12460669 0 0 Z " fill="#222529" transform="translate(152,200)"/>
<path d="M0 0 C0.99 0.33 1.98 0.66 3 1 C4.0649585 3.35190835 4.90496579 5.55546715 5.6875 8 C5.91244141 8.63550781 6.13738281 9.27101563 6.36914062 9.92578125 C9.25413409 18.67722039 8.16669146 25.9549691 5.125 34.5 C4.85558594 35.30953125 4.58617187 36.1190625 4.30859375 36.953125 C2.27621581 42.8618921 2.27621581 42.8618921 0 44 C-5.3681689 29.41008381 -7.52044463 17.15135968 -1.09375 2.31640625 C-0.7328125 1.55199219 -0.371875 0.78757812 0 0 Z " fill="#202427" transform="translate(214,94)"/>
<path d="M0 0 C5.38159174 0.93474528 10.64381279 2.44531072 15.875 4 C14.885 4.33 13.895 4.66 12.875 5 C13.22286708 6.97536745 13.22286708 6.97536745 13.875 9 C14.535 9.33 15.195 9.66 15.875 10 C13.895 10.66 11.915 11.32 9.875 12 C9.875 13.98 9.875 15.96 9.875 18 C2.3041181 16.22962267 -4.30768212 13.74139138 -11.125 10 C-9.00780013 4.36046313 -6.74741466 -0.60352546 0 0 Z " fill="#F5F5F0" transform="translate(261.125,233)"/>
<path d="M0 0 C3.7742893 1.16659851 5.30801297 1.74050024 7.4375 5.0625 C8.23740863 9.07853612 8.05590725 12.03182124 5.9375 15.5625 C2.40161027 17.68403384 -0.54151723 17.853513 -4.5625 17.0625 C-7.0625 15.5625 -7.0625 15.5625 -8.5625 13.0625 C-9.27623503 8.06635481 -9.32870649 6.20020054 -6.5 2 C-3.5625 0.0625 -3.5625 0.0625 0 0 Z " fill="#F5F5F6" transform="translate(215.5625,157.9375)"/>
<path d="M0 0 C4.64102509 2.00407902 7.18523787 3.80019619 10 8 C11.13367139 10.88311646 11.95265723 13.82121091 12.75 16.8125 C12.97042969 17.60076172 13.19085938 18.38902344 13.41796875 19.20117188 C13.95602599 21.13115979 14.47950317 23.06520234 15 25 C12.17919621 24.38737369 9.86191144 23.52845191 7.328125 22.15234375 C6.33232422 21.61577148 6.33232422 21.61577148 5.31640625 21.06835938 C4.63449219 20.69517578 3.95257813 20.32199219 3.25 19.9375 C2.55261719 19.56044922 1.85523438 19.18339844 1.13671875 18.79492188 C-0.57768302 17.86726612 -2.28913661 16.93416546 -4 16 C-4 15.01 -4 14.02 -4 13 C-2.35 12.67 -0.7 12.34 1 12 C0.814375 11.38125 0.62875 10.7625 0.4375 10.125 C0 8 0 8 1 6 C1.66 6 2.32 6 3 6 C2.67 7.32 2.34 8.64 2 10 C2.66 10 3.32 10 4 10 C4.33 9.01 4.66 8.02 5 7 C5.33 6.67 5.66 6.34 6 6 C5.195625 5.7525 4.39125 5.505 3.5625 5.25 C1 4 1 4 0.1875 1.875 C0.0946875 0.946875 0.0946875 0.946875 0 0 Z " fill="#212328" transform="translate(271,251)"/>
<path d="M0 0 C2 3 2 3 3.5 6.625 C4.60079098 10.06527351 4.60079098 10.06527351 7 11 C5.93446504 12.84373465 4.84696823 14.67479236 3.75 16.5 C3.14671875 17.5209375 2.5434375 18.541875 1.921875 19.59375 C1.28765625 20.3878125 0.6534375 21.181875 0 22 C-1.32 22 -2.64 22 -4 22 C-5.921875 19.59375 -5.921875 19.59375 -7.75 16.5 C-8.36359375 15.4790625 -8.9771875 14.458125 -9.609375 13.40625 C-10.29773438 12.21515625 -10.29773438 12.21515625 -11 11 C-8.66785852 9.79371992 -6.50357861 8.8345262 -4 8 C-3.26676204 5.98491642 -3.26676204 5.98491642 -3 4 C-2.67 4.66 -2.34 5.32 -2 6 C-1.34 4.02 -0.68 2.04 0 0 Z " fill="#F0E1D0" transform="translate(217,131)"/>
<path d="M0 0 C2 2 2 2 3 5 C3.33 5.66 3.66 6.32 4 7 C4.66 7 5.32 7 6 7 C6 7.66 6 8.32 6 9 C6.78375 9.309375 7.5675 9.61875 8.375 9.9375 C11 11 11 11 13 12 C13.34153937 13.66500443 13.67449498 15.33178677 14 17 C14.66 17.66 15.32 18.32 16 19 C15.01 19.33 14.02 19.66 13 20 C12.34644531 19.13375 12.34644531 19.13375 11.6796875 18.25 C8.03606889 13.52472231 8.03606889 13.52472231 2.75 11.1875 C-0.21273665 11.76524046 -0.21273665 11.76524046 -1.875 14.5 C-2.24625 15.325 -2.6175 16.15 -3 17 C-3.66 16.67 -4.32 16.34 -5 16 C-5.99 16.33 -6.98 16.66 -8 17 C-10.1875 15.5625 -10.1875 15.5625 -12 14 C-11.38511719 13.40832031 -10.77023438 12.81664062 -10.13671875 12.20703125 C-9.32847656 11.41683594 -8.52023438 10.62664062 -7.6875 9.8125 C-6.88699219 9.03519531 -6.08648437 8.25789062 -5.26171875 7.45703125 C-3.08923692 5.09694305 -1.53869987 2.80352112 0 0 Z " fill="#262821" transform="translate(244,234)"/>
<path d="M0 0 C4.75 0.875 4.75 0.875 7 2 C6.85866501 3.77119803 6.71176792 5.54195287 6.5625 7.3125 C6.48128906 8.29863281 6.40007812 9.28476562 6.31640625 10.30078125 C6 13 6 13 5 16 C4.34 16.33 3.68 16.66 3 17 C2.53101037 19.8159849 2.53101037 19.8159849 2.375 23.0625 C2.26285156 24.71958984 2.26285156 24.71958984 2.1484375 26.41015625 C2.09945312 27.26480469 2.05046875 28.11945313 2 29 C-1 27 -1 27 -2 24 C-2.55106247 15.81095536 -1.59295197 8.02165099 0 0 Z " fill="#1E2025" transform="translate(211,273)"/>
<path d="M0 0 C1.73641293 2.6046194 3.19591518 5.15872396 4.625 7.9375 C5.07101563 8.79214844 5.51703125 9.64679688 5.9765625 10.52734375 C7 13 7 13 7 17 C3.07910211 18.12025654 1.53163435 18.28708255 -2.125 16.3125 C-6.98275862 12.40517241 -6.98275862 12.40517241 -9 10 C-9 9.01 -9 8.02 -9 7 C-6.525 7.495 -6.525 7.495 -4 8 C-4 7.34 -4 6.68 -4 6 C-3.34 6 -2.68 6 -2 6 C-1.34 4.02 -0.68 2.04 0 0 Z " fill="#F0E1CD" transform="translate(183,144)"/>
<path d="M0 0 C3 1 3 1 4.38671875 3.21484375 C4.81597656 4.11332031 5.24523437 5.01179688 5.6875 5.9375 C6.12449219 6.83339844 6.56148437 7.72929688 7.01171875 8.65234375 C8 11 8 11 8 13 C2.55311677 16.09482002 2.55311677 16.09482002 -0.1875 15.625 C-0.785625 15.41875 -1.38375 15.2125 -2 15 C-5.33537489 16.11179163 -6.63707344 17.47411298 -9 20 C-7.32073668 15.63221913 -5.36694083 11.41834992 -3.375 7.1875 C-2.88773438 6.14819336 -2.88773438 6.14819336 -2.390625 5.08789062 C-1.59500115 3.39133977 -0.79767301 1.69558835 0 0 Z " fill="#EDEDEF" transform="translate(214,72)"/>
<path d="M0 0 C2.97 0.495 2.97 0.495 6 1 C6 1.66 6 2.32 6 3 C7.98 2.67 9.96 2.34 12 2 C13.32 4.64 14.64 7.28 16 10 C13.1875 10.6875 13.1875 10.6875 10 11 C8.125 9.5625 8.125 9.5625 7 8 C6.67 8.33 6.34 8.66 6 9 C5.34 9 4.68 9 4 9 C3.71125 9.886875 3.4225 10.77375 3.125 11.6875 C2.75375 12.780625 2.3825 13.87375 2 15 C1.566875 16.36125 1.566875 16.36125 1.125 17.75 C-0.20256499 20.40512998 -1.26020496 20.99540849 -4 22 C-2.16504854 16.36407767 -2.16504854 16.36407767 -0.9375 13.65625 C0.11955852 10.66125085 0.20124803 8.3517933 0.125 5.1875 C0.10695312 4.21167969 0.08890625 3.23585937 0.0703125 2.23046875 C0.04710937 1.49441406 0.02390625 0.75835937 0 0 Z " fill="#222527" transform="translate(207,178)"/>
<path d="M0 0 C0 0.66 0 1.32 0 2 C0.66 2.33 1.32 2.66 2 3 C2 3.66 2 4.32 2 5 C2.66 5.33 3.32 5.66 4 6 C4 6.99 4 7.98 4 9 C5.65 8.67 7.3 8.34 9 8 C9.33 8.66 9.66 9.32 10 10 C7.92085336 10.70005949 5.83648414 11.38462244 3.75 12.0625 C2.58984375 12.44535156 1.4296875 12.82820312 0.234375 13.22265625 C-2.80039787 13.95202799 -4.19109179 14.24252881 -7 13 C-8.49981374 10.92882865 -9 9.61910803 -9 7.0625 C-7.36057947 3.68119516 -3.92338052 0 0 0 Z " fill="#EEDAC7" transform="translate(257,158)"/>
<path d="M0 0 C0.36263859 5.8022175 -0.74315457 9.63999211 -3 15 C-3.66 15 -4.32 15 -5 15 C-5 13.68 -5 12.36 -5 11 C-5.99 11 -6.98 11 -8 11 C-8.33 9.68 -8.66 8.36 -9 7 C-10.32 7.33 -11.64 7.66 -13 8 C-11.58209589 4.64180605 -10.47404167 2.38671821 -7.625 0.0625 C-4.57486906 -1.17207681 -3.09556943 -0.97289325 0 0 Z " fill="#F0E9E5" transform="translate(185,245)"/>
<path d="M0 0 C2.64843255 2.43038891 4.83819697 5.13465161 7 8 C3.98112756 11.48331435 1.43090471 12.79157144 -3 14 C-4.19287411 10.12315913 -5 7.08378077 -5 3 C-6.32 2.34 -7.64 1.68 -9 1 C-5.48118594 -0.17293802 -3.68452865 -0.63770688 0 0 Z " fill="#F5E4CC" transform="translate(172,233)"/>
<path d="M0 0 C1.77692521 3.51917872 3.49552234 7.06421091 5.1875 10.625 C5.73792969 11.77226562 6.28835937 12.91953125 6.85546875 14.1015625 C7.23316406 15.05804688 7.61085937 16.01453125 8 17 C7.67 17.66 7.34 18.32 7 19 C5.68 19 4.36 19 3 19 C2.67 20.65 2.34 22.3 2 24 C1.67 24 1.34 24 1 24 C0.96132812 23.14728516 0.96132812 23.14728516 0.921875 22.27734375 C0.6120245 18.05915178 0.20727184 14.89937324 -2.125 11.3125 C-4 8 -4 8 -3.9375 4.6875 C-3 2 -3 2 0 0 Z " fill="#272B2D" transform="translate(209,256)"/>
<path d="M0 0 C1.40068736 0.24449192 2.79885566 0.50693774 4.1875 0.8125 C0.4375 4.6875 0.4375 4.6875 -1.8125 5.8125 C-1.8125 6.4725 -1.8125 7.1325 -1.8125 7.8125 C-3.3125 9.4375 -3.3125 9.4375 -4.8125 10.8125 C-3.8225 10.4825 -2.8325 10.1525 -1.8125 9.8125 C-1.1525 10.4725 -0.4925 11.1325 0.1875 11.8125 C-0.8025 11.8125 -1.7925 11.8125 -2.8125 11.8125 C-2.8125 12.4725 -2.8125 13.1325 -2.8125 13.8125 C-6.21562738 12.75374926 -8.82603231 11.80347846 -11.8125 9.8125 C-9.83555516 3.52222097 -6.96756556 -0.77782571 0 0 Z " fill="#E3D3C2" transform="translate(261.8125,233.1875)"/>
<path d="M0 0 C0.99 0 1.98 0 3 0 C5.2867601 6.86028029 3.46900882 12.51885184 1 19 C-0.65 19 -2.3 19 -4 19 C-3.67 17.68 -3.34 16.36 -3 15 C-3.66 15 -4.32 15 -5 15 C-4.5229205 12.77362902 -4.0251508 11.04331527 -2.875 9.0625 C-1.73426871 6.37363338 -2.23293959 4.76141748 -3 2 C-2.01 2.33 -1.02 2.66 0 3 C0 2.01 0 1.02 0 0 Z " fill="#1C2022" transform="translate(217,112)"/>
<path d="M0 0 C3.96 1.98 7.92 3.96 12 6 C12 6.99 12 7.98 12 9 C6.39 8.67 0.78 8.34 -5 8 C-5 7.34 -5 6.68 -5 6 C-5.99 6 -6.98 6 -8 6 C-8 5.34 -8 4.68 -8 4 C-4.77208445 1.8480563 -3.71599191 1.79913557 0 2 C0 1.34 0 0.68 0 0 Z " fill="#F5EBE4" transform="translate(157,194)"/>
<path d="M0 0 C2.4375 0.6875 2.4375 0.6875 5 2 C6.125 4.3125 6.125 4.3125 6 7 C3.5625 9.8125 3.5625 9.8125 1 12 C-2.63 11.01 -6.26 10.02 -10 9 C-8.68 8.67 -7.36 8.34 -6 8 C-6 7.01 -6 6.02 -6 5 C-5.01 4.34 -4.02 3.68 -3 3 C-1.98131338 2.01904252 -0.97648017 1.02297922 0 0 Z " fill="#EFCAA0" transform="translate(175,160)"/>
<path d="M0 0 C-1.49097658 3.7952131 -3.75700849 5.61042731 -7 8 C-6.50168276 11.68754757 -5.89932357 13.60490662 -3 16 C-3.33 16.99 -3.66 17.98 -4 19 C-4.66 19 -5.32 19 -6 19 C-6.66 18.01 -7.32 17.02 -8 16 C-8.66 15.67 -9.32 15.34 -10 15 C-10.59355614 12.35139573 -10.74209269 9.70802678 -11 7 C-13.97 6.505 -13.97 6.505 -17 6 C-16.67 5.01 -16.34 4.02 -16 3 C-16 3.66 -16 4.32 -16 5 C-10.67167346 3.82596195 -5.09817233 0 0 0 Z " fill="#35261B" transform="translate(256,156)"/>
<path d="M0 0 C0.33 0.66 0.66 1.32 1 2 C1.66 2.33 2.32 2.66 3 3 C3 3.99 3 4.98 3 6 C6.465 5.505 6.465 5.505 10 5 C9.87890625 6.796875 9.87890625 6.796875 9 9 C6.27734375 10.703125 6.27734375 10.703125 2.9375 12.25 C1.83277344 12.77078125 0.72804687 13.2915625 -0.41015625 13.828125 C-1.26480469 14.21484375 -2.11945313 14.6015625 -3 15 C-4.28497537 11.14507389 -3.4052209 9.59653164 -2.0625 5.8125 C-1.68222656 4.72582031 -1.30195313 3.63914062 -0.91015625 2.51953125 C-0.60980469 1.68808594 -0.30945313 0.85664063 0 0 Z M0 3 C0 3.66 0 4.32 0 5 C0.66 4.67 1.32 4.34 2 4 C1.34 3.67 0.68 3.34 0 3 Z " fill="#202528" transform="translate(147,261)"/>
<path d="M0 0 C3.465 1.98 3.465 1.98 7 4 C5.75023244 7.65316671 5.32901247 8.78065836 2 11 C2.33 11.99 2.66 12.98 3 14 C-0.3 13.67 -3.6 13.34 -7 13 C-2.375 7.25 -2.375 7.25 1 5 C0.67 3.35 0.34 1.7 0 0 Z " fill="#F5E4D1" transform="translate(168,155)"/>
<path d="M0 0 C3.0916909 2.52956528 3.90931332 5.22454612 5 9 C1.10653635 10.94673183 -1.56702874 12 -6 12 C-4.68139111 7.38486888 -2.78644563 3.90102388 0 0 Z " fill="#E7E8E9" transform="translate(205,264)"/>
<path d="M0 0 C0.33 0.66 0.66 1.32 1 2 C1.66 2 2.32 2 3 2 C3 1.34 3 0.68 3 0 C3.66 0 4.32 0 5 0 C4.34 1.98 3.68 3.96 3 6 C-3.19887485 6.37952295 -7.4477112 5.8352113 -13 3 C-10.41073669 0.41073669 -8.97294721 0.62601957 -5.375 0.375 C-4.37210937 0.30023438 -3.36921875 0.22546875 -2.3359375 0.1484375 C-1.56507813 0.09945312 -0.79421875 0.05046875 0 0 Z " fill="#1C2023" transform="translate(290,198)"/>
<path d="M0 0 C0.87840996 3.09720845 0.99435406 4.90645403 0 8 C0.99 8.33 1.98 8.66 3 9 C3 10.98 3 12.96 3 15 C0.29120665 16.35439668 -2.00933268 16.06501451 -5 16 C-4.39363767 10.23955788 -2.24341721 5.27985631 0 0 Z " fill="#E6BF97" transform="translate(245,145)"/>
<path d="M0 0 C1.32 1.32 2.64 2.64 4 4 C7.0745356 3.2236068 7.0745356 3.2236068 9 1 C9.84454356 4.37817425 10.10844919 6.67465243 9 10 C7.906875 9.979375 6.81375 9.95875 5.6875 9.9375 C2.05615809 9.81455548 2.05615809 9.81455548 -1 11 C-1.02688151 9.35425434 -1.04634123 7.70838587 -1.0625 6.0625 C-1.07410156 5.14597656 -1.08570313 4.22945312 -1.09765625 3.28515625 C-1 1 -1 1 0 0 Z " fill="#2C2828" transform="translate(210,149)"/>
<path d="M0 0 C0.99 0.33 1.98 0.66 3 1 C2.67 1.99 2.34 2.98 2 4 C0.02 4.33 -1.96 4.66 -4 5 C-4 5.66 -4 6.32 -4 7 C-3.401875 6.79375 -2.80375 6.5875 -2.1875 6.375 C0 6 0 6 3 8 C3 8.66 3 9.32 3 10 C-2.44693314 10.09688221 -7.63904667 10.12862175 -13 9 C-11.54038954 6.08077908 -9.36103252 5.43806731 -6.5 3.9375 C-3.0318363 2.28029466 -3.0318363 2.28029466 0 0 Z " fill="#E0D5CA" transform="translate(272,192)"/>
<path d="M0 0 C0.66 0.33 1.32 0.66 2 1 C1.67 1.99 1.34 2.98 1 4 C1.66 4.66 2.32 5.32 3 6 C0.67190457 6.68473395 -1.66237777 7.34853151 -4 8 C-4.845625 8.2475 -5.69125 8.495 -6.5625 8.75 C-9.76604554 9.07856877 -12.03769238 8.17114487 -15 7 C-11.81288915 5.39133978 -8.60560783 3.8320177 -5.375 2.3125 C-4.41335937 1.85488281 -3.45171875 1.39726562 -2.4609375 0.92578125 C-1.64882812 0.62027344 -0.83671875 0.31476563 0 0 Z " fill="#2A2A2E" transform="translate(169,277)"/>
<path d="M0 0 C2.31 0.66 4.62 1.32 7 2 C7.33 1.34 7.66 0.68 8 0 C10.64 0.33 13.28 0.66 16 1 C15.8125 2.875 15.8125 2.875 15 5 C12.10888212 6.52164099 10.28176588 7 7 7 C7 6.34 7 5.68 7 5 C6.34 5 5.68 5 5 5 C5 4.34 5 3.68 5 3 C3.35 2.67 1.7 2.34 0 2 C0 1.34 0 0.68 0 0 Z " fill="#1D2125" transform="translate(304,199)"/>
<path d="M0 0 C1.08667969 0.20367187 2.17335938 0.40734375 3.29296875 0.6171875 C4.54013672 0.86855469 4.54013672 0.86855469 5.8125 1.125 C4.8225 2.445 3.8325 3.765 2.8125 5.125 C3.4725 5.455 4.1325 5.785 4.8125 6.125 C4.8125 6.785 4.8125 7.445 4.8125 8.125 C5.4725 8.455 6.1325 8.785 6.8125 9.125 C5.8225 9.62 5.8225 9.62 4.8125 10.125 C2.35580645 8.71402133 0.03335376 7.26456406 -2.3125 5.6875 C-2.97121094 5.25373047 -3.62992187 4.81996094 -4.30859375 4.37304688 C-5.93962943 3.29750886 -7.56418453 2.21215514 -9.1875 1.125 C-5.43214902 -1.37856732 -4.31860586 -0.8358592 0 0 Z " fill="#F2E7DC" transform="translate(267.1875,200.875)"/>
<path d="M0 0 C2.96844435 -0.35338623 5.15598218 -0.5417682 7.734375 1.11328125 C9.20348819 2.35503168 10.60704814 3.67337918 12 5 C10 7 10 7 7 9 C6.67 9.66 6.34 10.32 6 11 C4.99735282 9.35577799 3.99794896 7.70957779 3 6.0625 C2.443125 5.14597656 1.88625 4.22945312 1.3125 3.28515625 C0 1 0 1 0 0 Z " fill="#EEEEEC" transform="translate(218,179)"/>
<path d="M0 0 C5 7.5 5 7.5 5 12 C1.2983569 12.94693195 -0.39112465 13.30443767 -3.875 11.5625 C-4.57625 11.046875 -5.2775 10.53125 -6 10 C-5.195625 9.278125 -4.39125 8.55625 -3.5625 7.8125 C-0.97707928 4.97484311 -0.31957187 3.72833853 0 0 Z " fill="#EBC192" transform="translate(185,149)"/>
<path d="M0 0 C0.99 0.33 1.98 0.66 3 1 C2.01 2.485 2.01 2.485 1 4 C1.99 4.33 2.98 4.66 4 5 C4.94921875 7.06640625 4.94921875 7.06640625 5.6875 9.5625 C5.93886719 10.38878906 6.19023437 11.21507812 6.44921875 12.06640625 C6.63097656 12.70449219 6.81273437 13.34257812 7 14 C6.01 14.66 5.02 15.32 4 16 C3.01 15.67 2.02 15.34 1 15 C1 13.68 1 12.36 1 11 C0.34 10.67 -0.32 10.34 -1 10 C-0.67 6.7 -0.34 3.4 0 0 Z " fill="#F2ECDC" transform="translate(246,143)"/>
<path d="M0 0 C2.12346508 2.06675533 4.05005861 4.21704702 5.9375 6.5 C8.09676789 9.04696686 10.18415957 11.15887357 13 13 C12.01 13 11.02 13 10 13 C9.67 13.66 9.34 14.32 9 15 C9 14.34 9 13.68 9 13 C8.29875 12.7525 7.5975 12.505 6.875 12.25 C3.58713526 10.82049359 0.84454057 9.18301951 -2 7 C-2 6.01 -2 5.02 -2 4 C-1.34 4 -0.68 4 0 4 C0 2.68 0 1.36 0 0 Z " fill="#292B2B" transform="translate(171,149)"/>
<path d="M0 0 C0.66 0.66 1.32 1.32 2 2 C1.34 2 0.68 2 0 2 C0 3.98 0 5.96 0 8 C0.33 7.67 0.66 7.34 1 7 C1.33 7.99 1.66 8.98 2 10 C-1 12 -1 12 -5 12 C-6.32 11.01 -7.64 10.02 -9 9 C-6.03 6.03 -3.06 3.06 0 0 Z " fill="#272526" transform="translate(241,239)"/>
<path d="M0 0 C0.99 0.33 1.98 0.66 3 1 C3 1.99 3 2.98 3 4 C4.32 4.33 5.64 4.66 7 5 C3.87567603 7.52349243 0.61939504 9.27256146 -3 11 C-3 10.34 -3 9.68 -3 9 C-3.99 8.67 -4.98 8.34 -6 8 C-4.02 5.36 -2.04 2.72 0 0 Z " fill="#292C2E" transform="translate(259,147)"/>
<path d="M0 0 C3.125 0.3125 3.125 0.3125 5 2.3125 C5.556875 3.3025 5.556875 3.3025 6.125 4.3125 C3.125 6.3125 3.125 6.3125 1 7.3125 C-1.04544538 8.17110158 -1.04544538 8.17110158 -1.875 10.3125 C-3.72564319 7.18953962 -4.16856154 4.93309232 -3.875 1.3125 C-2.875 0.3125 -2.875 0.3125 0 0 Z " fill="#F6EEE0" transform="translate(246.875,244.6875)"/>
<path d="M0 0 C0 0.66 0 1.32 0 2 C-3.59427052 4.19162836 -5.54865583 5.02219725 -9.8125 4.8125 C-10.864375 4.544375 -11.91625 4.27625 -13 4 C-13.33 3.34 -13.66 2.68 -14 2 C-16.02463255 1.34786708 -16.02463255 1.34786708 -18 1 C-18 0.67 -18 0.34 -18 0 C-11.84098757 -1.23180249 -6.21324498 -0.73030908 0 0 Z " fill="#F6F1E3" transform="translate(167,202)"/>
<path d="M0 0 C0.66 1.65 1.32 3.3 2 5 C0.68 5.33 -0.64 5.66 -2 6 C-2.33 5.01 -2.66 4.02 -3 3 C-4.15064549 4.72596823 -5.29830974 6.45394961 -6.4375 8.1875 C-6.953125 8.785625 -7.46875 9.38375 -8 10 C-8.99 10 -9.98 10 -11 10 C-11 9.01 -11 8.02 -11 7 C-11.99 6.67 -12.98 6.34 -14 6 C-11.74402173 3.74402173 -9.95396133 3.03425808 -7 1.875 C-6.113125 1.52179688 -5.22625 1.16859375 -4.3125 0.8046875 C-2 0 -2 0 0 0 Z " fill="#EAEBEB" transform="translate(283,113)"/>
<path d="M0 0 C0.99 0.66 1.98 1.32 3 2 C3.66 1.67 4.32 1.34 5 1 C5.268125 1.639375 5.53625 2.27875 5.8125 2.9375 C6.88667752 5.33131686 6.88667752 5.33131686 10 6 C9.67 7.32 9.34 8.64 9 10 C6.69 10 4.38 10 2 10 C1.71125 9.236875 1.4225 8.47375 1.125 7.6875 C0.03730987 4.84970692 0.03730987 4.84970692 -2 2 C-1.34 1.34 -0.68 0.68 0 0 Z " fill="#201611" transform="translate(176,233)"/>
<path d="M0 0 C0 5 0 5 -1 8 C-1.33 7.67 -1.66 7.34 -2 7 C-2.33 8.98 -2.66 10.96 -3 13 C-3.33 13 -3.66 13 -4 13 C-4 11.35 -4 9.7 -4 8 C-7.16666667 9.83333333 -7.16666667 9.83333333 -9 13 C-9.33 11.02 -9.66 9.04 -10 7 C-6.80331012 4.3513141 -3.60513403 2.06007659 0 0 Z " fill="#2C2F32" transform="translate(230,249)"/>
<path d="M0 0 C1.65 0.33 3.3 0.66 5 1 C5.33 2.32 5.66 3.64 6 5 C5.401875 5.28875 4.80375 5.5775 4.1875 5.875 C1.80672208 7.04742026 1.80672208 7.04742026 -1 9 C-3.32387947 9.39387788 -5.65793749 9.73486085 -8 10 C-7.34 9.38125 -6.68 8.7625 -6 8.125 C-3.7715451 6.24362573 -3.7715451 6.24362573 -4 4 C-3.34 4 -2.68 4 -2 4 C-2 3.34 -2 2.68 -2 2 C-1.34 2 -0.68 2 0 2 C0 1.34 0 0.68 0 0 Z " fill="#1F202D" transform="translate(164,226)"/>
<path d="M0 0 C1.32 1.65 2.64 3.3 4 5 C1.03 5.99 -1.94 6.98 -5 8 C-5 8.66 -5 9.32 -5 10 C-6.32 10 -7.64 10 -9 10 C-11.00401011 10.30830925 -13.00511766 10.63729412 -15 11 C-11.23955211 7.72477119 -7.28852158 5.43476122 -2.890625 3.1484375 C-0.84636116 2.13627948 -0.84636116 2.13627948 0 0 Z " fill="#272A29" transform="translate(170,200)"/>
<path d="M0 0 C2.5625 -0.5 2.5625 -0.5 6 0 C8.65876127 2.41995038 10.83803429 5.13443598 13 8 C11.71034824 9.37562854 10.37310707 10.70766393 9 12 C8.34 12 7.68 12 7 12 C6.8046875 9.94921875 6.609375 7.8984375 6.4140625 5.84765625 C6.27742187 5.23792969 6.14078125 4.62820312 6 4 C5.34 3.67 4.68 3.34 4 3 C4 2.34 4 1.68 4 1 C2.68 0.67 1.36 0.34 0 0 Z " fill="#E0CFB1" transform="translate(166,233)"/>
<path d="M0 0 C0.33 0 0.66 0 1 0 C1.2226746 1.43534841 1.42761906 2.87345525 1.625 4.3125 C1.74101562 5.11300781 1.85703125 5.91351563 1.9765625 6.73828125 C2 9 2 9 0 12 C-1.32 12 -2.64 12 -4 12 C-4.99 10.02 -5.98 8.04 -7 6 C-4.69 5.34 -2.38 4.68 0 4 C0 2.68 0 1.36 0 0 Z " fill="#F0E7DB" transform="translate(213,135)"/>
<path d="M0 0 C0.99 0 1.98 0 3 0 C3 2.97 3 5.94 3 9 C3.66 9 4.32 9 5 9 C5.33 10.65 5.66 12.3 6 14 C5.01 14.495 5.01 14.495 4 15 C-1.84513146 6.77506501 -1.84513146 6.77506501 -1 1 C-0.67 0.67 -0.34 0.34 0 0 Z " fill="#1C1F22" transform="translate(223,257)"/>
<path d="M0 0 C0 0.66 0 1.32 0 2 C-0.99 2 -1.98 2 -3 2 C-3 2.66 -3 3.32 -3 4 C-6.55293493 5.14947895 -7.79976669 5.0868937 -11.3125 3.5625 C-12.199375 3.046875 -13.08625 2.53125 -14 2 C-10.53176091 -1.46823909 -4.53632763 -1.70112286 0 0 Z " fill="#18191A" transform="translate(221,176)"/>
<path d="M0 0 C2.64465038 3.1254959 3.84414715 6.08788267 5 10 C3.35 10 1.7 10 0 10 C-0.33 11.65 -0.66 13.3 -1 15 C-1.33 15 -1.66 15 -2 15 C-3.45295405 5.98468271 -3.45295405 5.98468271 -1.5625 1.875 C-1.046875 1.25625 -0.53125 0.6375 0 0 Z " fill="#3C3D40" transform="translate(212,265)"/>
<path d="M0 0 C0.763125 0.20625 1.52625 0.4125 2.3125 0.625 C2.3125 2.935 2.3125 5.245 2.3125 7.625 C0.0025 7.295 -2.3075 6.965 -4.6875 6.625 C-4.0275 6.295 -3.3675 5.965 -2.6875 5.625 C-3.6775 4.305 -4.6675 2.985 -5.6875 1.625 C-2.6875 -0.375 -2.6875 -0.375 0 0 Z " fill="#EED9BE" transform="translate(182.6875,244.375)"/>
<path d="M0 0 C2.32472205 2.85306797 3.7508258 5.54074837 5 9 C5.99 8.34 6.98 7.68 8 7 C8 8.98 8 10.96 8 13 C5.625 12.75 5.625 12.75 3 12 C1.8125 10.0625 1.8125 10.0625 1 8 C0.34 7.34 -0.32 6.68 -1 6 C-1.625 3.875 -1.625 3.875 -2 2 C-1.34 2 -0.68 2 0 2 C0 1.34 0 0.68 0 0 Z " fill="#3D4042" transform="translate(209,326)"/>
<path d="M0 0 C2.00720923 0.28674418 4.0085944 0.61866701 6 1 C6.6875 2.6875 6.6875 2.6875 7 5 C5.5625 7.75 5.5625 7.75 4 10 C3.01 9.34 2.02 8.68 1 8 C1 7.01 1 6.02 1 5 C0.05021103 2.84971696 0.05021103 2.84971696 -1 1 C-0.67 0.67 -0.34 0.34 0 0 Z " fill="#19191F" transform="translate(257,247)"/>
<path d="M0 0 C2.06022073 3.09033109 3.2031883 5.37812866 4 9 C2.625 11.875 2.625 11.875 1 14 C0.01 13.67 -0.98 13.34 -2 13 C-1.67 11.68 -1.34 10.36 -1 9 C-1.66 8.67 -2.32 8.34 -3 8 C-2.01 7.01 -1.02 6.02 0 5 C-0.33 4.01 -0.66 3.02 -1 2 C-0.67 1.34 -0.34 0.68 0 0 Z " fill="#202226" transform="translate(203,313)"/>
<path d="M0 0 C0.66 0.33 1.32 0.66 2 1 C1.938125 2.258125 1.87625 3.51625 1.8125 4.8125 C1.81821182 8.03914376 1.81821182 8.03914376 3.125 10.9375 C5.68102669 12.38591512 8.10340247 12.67815583 11 13 C11 13.33 11 13.66 11 14 C7.37 14.33 3.74 14.66 0 15 C0.33 14.34 0.66 13.68 1 13 C-0.39092892 10.37612865 -0.39092892 10.37612865 -2 8 C-1.34 8 -0.68 8 0 8 C-0.66 7.01 -1.32 6.02 -2 5 C-1.48275862 1.48275862 -1.48275862 1.48275862 0 0 Z " fill="#3D3D42" transform="translate(206,162)"/>
<path d="M0 0 C0.66 0.33 1.32 0.66 2 1 C0.625 3.5 0.625 3.5 -1 6 C-1.66 6 -2.32 6 -3 6 C-3 5.34 -3 4.68 -3 4 C-3.66 4.66 -4.32 5.32 -5 6 C-5.99 6.495 -5.99 6.495 -7 7 C-7.65213292 9.02463255 -7.65213292 9.02463255 -8 11 C-8.99 11 -9.98 11 -11 11 C-9.56179187 5.96627156 -7.09754485 4.01044111 -3 1 C-2.01 0.67 -1.02 0.34 0 0 Z " fill="#2E3032" transform="translate(159,250)"/>
<path d="M0 0 C2.03144641 0.93446535 4.03533587 1.93224776 6 3 C5.67 3.66 5.34 4.32 5 5 C-0.61 4.67 -6.22 4.34 -12 4 C-12 3.34 -12 2.68 -12 2 C-10.95199219 1.90912109 -10.95199219 1.90912109 -9.8828125 1.81640625 C-8.97273437 1.73261719 -8.06265625 1.64882812 -7.125 1.5625 C-6.22007812 1.48128906 -5.31515625 1.40007812 -4.3828125 1.31640625 C-1.98889139 1.13010715 -1.98889139 1.13010715 0 0 Z " fill="#D2C5B1" transform="translate(164,198)"/>
<path d="M0 0 C0.66 0 1.32 0 2 0 C2.33 0.99 2.66 1.98 3 3 C1.34765625 5.48046875 1.34765625 5.48046875 -0.9375 8.1875 C-1.68902344 9.08855469 -2.44054687 9.98960937 -3.21484375 10.91796875 C-3.80394531 11.60503906 -4.39304688 12.29210937 -5 13 C-5.99 12.34 -6.98 11.68 -8 11 C-7.34 11 -6.68 11 -6 11 C-6 10.34 -6 9.68 -6 9 C-5.505 8.525625 -5.01 8.05125 -4.5 7.5625 C-2.65373409 6.00030058 -2.65373409 6.00030058 -3 3 C-2.34 3 -1.68 3 -1 3 C-0.67 2.01 -0.34 1.02 0 0 Z " fill="#2A2C30" transform="translate(195,190)"/>
<path d="M0 0 C3 3.75 3 3.75 3 6 C4.9600281 7.63676257 4.9600281 7.63676257 7 9 C5.02 9.33 3.04 9.66 1 10 C-2.0651341 5.5862069 -2.0651341 5.5862069 -1.75 2.75 C-1 1 -1 1 0 0 Z " fill="#D2AC8F" transform="translate(250,162)"/>
<path d="M0 0 C4.4785979 -0.17563129 8.02584132 -0.22085338 12 2 C12.33 2.99 12.66 3.98 13 5 C10.50935112 5.68707555 8.62113708 6 6 6 C6 5.01 6 4.02 6 3 C4.02 2.34 2.04 1.68 0 1 C0 0.67 0 0.34 0 0 Z " fill="#FAEEE4" transform="translate(255,161)"/>
<path d="M0 0 C0.33 0 0.66 0 1 0 C1.02705729 1.77074917 1.04642195 3.54161711 1.0625 5.3125 C1.07410156 6.29863281 1.08570313 7.28476563 1.09765625 8.30078125 C1 11 1 11 0 14 C-0.99 14.33 -1.98 14.66 -3 15 C-3.66 13.35 -4.32 11.7 -5 10 C-4.01 10 -3.02 10 -2 10 C-1.93941406 9.36191406 -1.87882813 8.72382813 -1.81640625 8.06640625 C-1.73261719 7.24011719 -1.64882812 6.41382813 -1.5625 5.5625 C-1.48128906 4.73878906 -1.40007812 3.91507813 -1.31640625 3.06640625 C-1 1 -1 1 0 0 Z " fill="#D8C5B3" transform="translate(215,137)"/>
<path d="M0 0 C0.99 0.33 1.98 0.66 3 1 C3.33 1.99 3.66 2.98 4 4 C3.34 4 2.68 4 2 4 C2 5.65 2 7.3 2 9 C1.34 9 0.68 9 0 9 C0 7.35 0 5.7 0 4 C-3.62885324 3.84850702 -3.62885324 3.84850702 -7 5 C-7 4.34 -7 3.68 -7 3 C-7.66 2.67 -8.32 2.34 -9 2 C-3.375 0.875 -3.375 0.875 0 2 C0 1.34 0 0.68 0 0 Z " fill="#3C322C" transform="translate(185,241)"/>
<path d="M0 0 C0.66 0 1.32 0 2 0 C2 0.99 2 1.98 2 3 C2.66 3 3.32 3 4 3 C3.67 4.32 3.34 5.64 3 7 C3.99 6.67 4.98 6.34 6 6 C6.93065133 8.60582371 7.14917407 9.64198224 6.0625 12.25 C5.711875 12.8275 5.36125 13.405 5 14 C2.99006295 10.98509443 2.27376659 8.7850073 1.375 5.3125 C1.11460937 4.31863281 0.85421875 3.32476562 0.5859375 2.30078125 C0.39257812 1.54152344 0.19921875 0.78226562 0 0 Z " fill="#2D2D2F" transform="translate(210,124)"/>
<path d="M0 0 C-0.66 2.64 -1.32 5.28 -2 8 C-3.32 8.33 -4.64 8.66 -6 9 C-6.66 8.34 -7.32 7.68 -8 7 C-7.34 6.67 -6.68 6.34 -6 6 C-6 5.34 -6 4.68 -6 4 C-6.66 3.67 -7.32 3.34 -8 3 C-2.25 0 -2.25 0 0 0 Z " fill="#373739" transform="translate(287,123)"/>
<path d="M0 0 C2.625 0.9375 2.625 0.9375 5 2 C5 2.66 5 3.32 5 4 C2.25 5.625 2.25 5.625 -1 7 C-3.375 6.1875 -3.375 6.1875 -5 5 C-4.34 4.67 -3.68 4.34 -3 4 C-2.67 3.01 -2.34 2.02 -2 1 C-1.34 0.67 -0.68 0.34 0 0 Z " fill="#23262B" transform="translate(292,103)"/>
<path d="M0 0 C-1.49128001 3.79598549 -3.65733441 5.71720399 -7 8 C-7.99 8 -8.98 8 -10 8 C-9.67 7.01 -9.34 6.02 -9 5 C-8.34 5 -7.68 5 -7 5 C-6.71125 4.360625 -6.4225 3.72125 -6.125 3.0625 C-4.45129782 -0.005954 -3.47574769 0 0 0 Z " fill="#221A14" transform="translate(256,156)"/>
<path d="M0 0 C3 1 3 1 4.75 3.625 C6.21232802 7.57328566 5.89388075 9.93690569 5 14 C4.01 14.33 3.02 14.66 2 15 C2.3403125 13.1746875 2.3403125 13.1746875 2.6875 11.3125 C3.21875283 7.25631282 2.45516991 5.33903108 0 2 C0 1.34 0 0.68 0 0 Z " fill="#2D1E11" transform="translate(186,150)"/>
<path d="M0 0 C2.9375 1.1875 2.9375 1.1875 6 3 C6.75 5.5625 6.75 5.5625 7 8 C7.66 8.66 8.32 9.32 9 10 C8.01 10.33 7.02 10.66 6 11 C4.80040625 9.74057614 3.61560557 8.46704714 2.4375 7.1875 C1.44556641 6.12595703 1.44556641 6.12595703 0.43359375 5.04296875 C-0.03949219 4.36878906 -0.51257813 3.69460937 -1 3 C-0.67 2.01 -0.34 1.02 0 0 Z " fill="#322F2A" transform="translate(251,243)"/>
<path d="M0 0 C0.7734375 0.495 0.7734375 0.495 1.5625 1 C4.1198469 2.2293153 4.1198469 2.2293153 7.625 2 C8.73875 2 9.8525 2 11 2 C11.66 2.66 12.32 3.32 13 4 C15.06874034 4.6425235 15.06874034 4.6425235 17 5 C17 5.66 17 6.32 17 7 C14.55924703 6.57669598 12.12342171 6.13710538 9.6875 5.6875 C8.99720703 5.56955078 8.30691406 5.45160156 7.59570312 5.33007812 C3.88887565 4.63169034 1.29252328 4.13575023 -1 1 C-0.67 0.67 -0.34 0.34 0 0 Z " fill="#313231" transform="translate(259,230)"/>
<path d="M0 0 C0.33 0.66 0.66 1.32 1 2 C0.02616054 3.68208635 -0.97695052 5.34738161 -2 7 C-2.2165625 8.0828125 -2.2165625 8.0828125 -2.4375 9.1875 C-3 11 -3 11 -5.0625 12.25 C-5.701875 12.4975 -6.34125 12.745 -7 13 C-5.69045524 8.76916309 -4.16145284 4.872603 -2 1 C-1.34 0.67 -0.68 0.34 0 0 Z " fill="#303232" transform="translate(210,187)"/>
<path d="M0 0 C2.70272533 2.87164566 3.94791837 4.30991841 4.25 8.3125 C4.1675 9.199375 4.085 10.08625 4 11 C0.60582235 7.87378374 -1.6062718 5.43458973 -3 1 C-2.01 0.67 -1.02 0.34 0 0 Z " fill="#222627" transform="translate(232,181)"/>
<path d="M0 0 C0.66 0 1.32 0 2 0 C2.8125 2.1875 2.8125 2.1875 3 5 C0.5625 7.8125 0.5625 7.8125 -2 10 C-3.32 9.34 -4.64 8.68 -6 8 C-4.35 7.67 -2.7 7.34 -1 7 C-1.33 6.01 -1.66 5.02 -2 4 C-1.0625 1.8125 -1.0625 1.8125 0 0 Z " fill="#D8B38F" transform="translate(178,162)"/>
<path d="M0 0 C2 3 2 3 3.5 6.625 C4.60079098 10.06527351 4.60079098 10.06527351 7 11 C5.515 13.475 5.515 13.475 4 16 C3.34 15.67 2.68 15.34 2 15 C2 12.36 2 9.72 2 7 C1.34 6.67 0.68 6.34 0 6 C-1 3 -1 3 0 0 Z " fill="#E2E0DC" transform="translate(217,131)"/>
<path d="M0 0 C0.99 0.33 1.98 0.66 3 1 C3.99 0.67 4.98 0.34 6 0 C6 1.32 6 2.64 6 4 C5.34 4 4.68 4 4 4 C3.67 4.66 3.34 5.32 3 6 C2.01 6.495 2.01 6.495 1 7 C0.01 6.34 -0.98 5.68 -2 5 C-1.34 3.35 -0.68 1.7 0 0 Z " fill="#FCFAF7" transform="translate(207,135)"/>
<path d="M0 0 C0.33 0.66 0.66 1.32 1 2 C2.65 2 4.3 2 6 2 C6 3.98 6 5.96 6 8 C5.01 8.33 4.02 8.66 3 9 C1.68 6.36 0.36 3.72 -1 1 C-0.67 0.67 -0.34 0.34 0 0 Z " fill="#2B2C30" transform="translate(224,86)"/>
<path d="M0 0 C1.875 0.25 1.875 0.25 4 1 C5.125 2.9375 5.125 2.9375 6 5 C6.66 5.66 7.32 6.32 8 7 C5.69 6.67 3.38 6.34 1 6 C0.4465236 3.92446352 0 2.15634036 0 0 Z " fill="#F2CB9C" transform="translate(252,163)"/>
<path d="M0 0 C0.66 0.33 1.32 0.66 2 1 C2 3 2 3 -0.1875 5.5625 C-3.01309018 8.01134483 -4.35558268 8.68762137 -8 9 C-5.89851796 5.01824456 -3.63094642 2.64960955 0 0 Z " fill="#2E3034" transform="translate(272,130)"/>
<path d="M0 0 C1.04728614 3.14185841 0.99290464 3.94062123 0.1875 7 C-0.06966797 8.0209375 -0.06966797 8.0209375 -0.33203125 9.0625 C-1 11 -1 11 -3 14 C-3 13.34 -3 12.68 -3 12 C-3.66 12 -4.32 12 -5 12 C-3.68938409 7.76570244 -2.05643741 3.92592596 0 0 Z " fill="#2C3133" transform="translate(228,308)"/>
<path d="M0 0 C2 0 2 0 4.6875 2.25 C7 5 7 5 6.8125 7.3125 C6.544375 7.869375 6.27625 8.42625 6 9 C0.25 4.25 0.25 4.25 -2 2 C-1.34 1.34 -0.68 0.68 0 0 Z M5 2 C5.99 2.33 6.98 2.66 8 3 C7.01 3 6.02 3 5 3 C5 2.67 5 2.34 5 2 Z " fill="#2F3235" transform="translate(279,235)"/>
<path d="M0 0 C0.66 0.33 1.32 0.66 2 1 C2.96070434 3.88211302 3.10581883 5.69850044 3.0625 8.6875 C3.05347656 9.49574219 3.04445312 10.30398437 3.03515625 11.13671875 C3.02355469 11.75160156 3.01195312 12.36648437 3 13 C2.54625 12.38125 2.0925 11.7625 1.625 11.125 C0.02891081 8.94080167 0.02891081 8.94080167 -2 7 C-1.34 4.69 -0.68 2.38 0 0 Z " fill="#E8E9EB" transform="translate(205,176)"/>
<path d="M0 0 C0.66 0.99 1.32 1.98 2 3 C1.67 3.66 1.34 4.32 1 5 C2.98 4.34 4.96 3.68 7 3 C7.33 3.66 7.66 4.32 8 5 C4.7 6.32 1.4 7.64 -2 9 C-1.34 6.03 -0.68 3.06 0 0 Z " fill="#3B3E40" transform="translate(145,267)"/>
<path d="M0 0 C0.66 0.66 1.32 1.32 2 2 C1.34 2 0.68 2 0 2 C-0.433125 3.7015625 -0.433125 3.7015625 -0.875 5.4375 C-1.24625 6.613125 -1.6175 7.78875 -2 9 C-2.99 9.495 -2.99 9.495 -4 10 C-4.33 9.34 -4.66 8.68 -5 8 C-5.99 8 -6.98 8 -8 8 C-5.36 5.36 -2.72 2.72 0 0 Z " fill="#333337" transform="translate(241,239)"/>
<path d="M0 0 C0 0.33 0 0.66 0 1 C-6.435 1.495 -6.435 1.495 -13 2 C-13 2.66 -13 3.32 -13 4 C-15.97 3.67 -18.94 3.34 -22 3 C-22 2.67 -22 2.34 -22 2 C-14.66258031 -0.3479743 -7.65606218 -0.19355213 0 0 Z " fill="#3C3F44" transform="translate(306,196)"/>
<path d="M0 0 C0.33 0 0.66 0 1 0 C1.33 3.63 1.66 7.26 2 11 C1.01 11.495 1.01 11.495 0 12 C-0.99 13.485 -0.99 13.485 -2 15 C-2.66 15 -3.32 15 -4 15 C-3.79503906 14.41992188 -3.59007812 13.83984375 -3.37890625 13.2421875 C-1.85990187 8.8378016 -0.5952849 4.64322223 0 0 Z " fill="#35383B" transform="translate(235,116)"/>
<path d="M0 0 C4 2 4 2 4.875 3.875 C5.03210737 6.54582535 4.51178347 7.80791396 3 10 C2.01 10.33 1.02 10.66 0 11 C0 7.37 0 3.74 0 0 Z " fill="#2A2E2F" transform="translate(202,248)"/>
<path d="M0 0 C0.66 0.33 1.32 0.66 2 1 C0.6062718 5.43458973 -1.60582235 7.87378374 -5 11 C-5 10.01 -5 9.02 -5 8 C-4.34 7.67 -3.68 7.34 -3 7 C-3.061875 6.21625 -3.12375 5.4325 -3.1875 4.625 C-3.125625 3.75875 -3.06375 2.8925 -3 2 C-2.01 1.34 -1.02 0.68 0 0 Z " fill="#2C2D32" transform="translate(229,210)"/>
<path d="M0 0 C0.66 0.33 1.32 0.66 2 1 C0.6875 2.5 0.6875 2.5 -1 4 C-1.99 4 -2.98 4 -4 4 C-4.33 4.99 -4.66 5.98 -5 7 C-8 7 -8 7 -11 5 C-9.21289414 4.13633178 -7.4201535 3.28431406 -5.625 2.4375 C-4.62726563 1.96183594 -3.62953125 1.48617187 -2.6015625 0.99609375 C-1.74304688 0.66738281 -0.88453125 0.33867187 0 0 Z " fill="#D8DBDC" transform="translate(120,183)"/>
<path d="M0 0 C0.66 0.33 1.32 0.66 2 1 C1.67 1.99 1.34 2.98 1 4 C1.66 4.33 2.32 4.66 3 5 C-0.465 6.485 -0.465 6.485 -4 8 C-4.33 6.68 -4.66 5.36 -5 4 C-3.35 2.68 -1.7 1.36 0 0 Z " fill="#222629" transform="translate(106,184)"/>
<path d="M0 0 C3.465 1.98 3.465 1.98 7 4 C6.67 4.99 6.34 5.98 6 7 C4.68 7 3.36 7 2 7 C0 4 0 4 0 0 Z " fill="#EDE2DB" transform="translate(168,155)"/>
<path d="M0 0 C0.99 0 1.98 0 3 0 C2.67 1.98 2.34 3.96 2 6 C1.34 6 0.68 6 0 6 C0 7.32 0 8.64 0 10 C-0.66 10 -1.32 10 -2 10 C-2.17942163 6.05272412 -2.09350689 3.4019487 0 0 Z " fill="#241D16" transform="translate(238,153)"/>
<path d="M0 0 C0.33 0.66 0.66 1.32 1 2 C3.52733235 2.65555119 3.52733235 2.65555119 6 3 C3.01353231 4.99097846 0.40312738 5.94124926 -3 7 C-2.625 4.0625 -2.625 4.0625 -2 1 C-1.34 0.67 -0.68 0.34 0 0 Z " fill="#D9DDE0" transform="translate(131,287)"/>
<path d="M0 0 C2.31 0.66 4.62 1.32 7 2 C6.67 2.66 6.34 3.32 6 4 C3.6859378 4.73075648 1.35171131 5.40138258 -1 6 C-1.33 5.34 -1.66 4.68 -2 4 C-1.0625 1.875 -1.0625 1.875 0 0 Z " fill="#26262A" transform="translate(269,282)"/>
<path d="M0 0 C2 3 2 3 1.7578125 5.04296875 C1.171875 7.02864583 0.5859375 9.01432292 0 11 C-0.99 10.67 -1.98 10.34 -3 10 C-4 7 -4 7 -3.22265625 5.17578125 C-2.1484375 3.45052083 -1.07421875 1.72526042 0 0 Z " fill="#25292B" transform="translate(180,263)"/>
<path d="M0 0 C-1.75 5.75 -1.75 5.75 -4 8 C-4.99 6.35 -5.98 4.7 -7 3 C-4.49955934 -0.00052879 -4.2621484 0 0 0 Z " fill="#EAECEC" transform="translate(181,261)"/>
<path d="M0 0 C-0.33 0.99 -0.66 1.98 -1 3 C-2.33076989 3.34342449 -3.66431979 3.67619874 -5 4 C-5.99 5.485 -5.99 5.485 -7 7 C-9.125 7.6875 -9.125 7.6875 -11 8 C-9.24437387 3.08424684 -5.22219793 0 0 0 Z " fill="#1D1817" transform="translate(178,244)"/>
<path d="M0 0 C2.5 1.375 2.5 1.375 5 3 C5 3.66 5 4.32 5 5 C5.66 5.33 6.32 5.66 7 6 C6.67 6.66 6.34 7.32 6 8 C4.35 8 2.7 8 1 8 C0.67 5.36 0.34 2.72 0 0 Z " fill="#181B16" transform="translate(245,233)"/>
<path d="M0 0 C2.49361571 1.20381448 4.68143083 2.45428722 7 4 C7 4.66 7 5.32 7 6 C7.66 6.33 8.32 6.66 9 7 C8.01 7.495 8.01 7.495 7 8 C4.03 6.02 1.06 4.04 -2 2 C-1.34 1.34 -0.68 0.68 0 0 Z " fill="#E8E8E6" transform="translate(265,203)"/>
<path d="M0 0 C3.63 0.33 7.26 0.66 11 1 C11 1.66 11 2.32 11 3 C9.02 3.99 7.04 4.98 5 6 C5 5.01 5 4.02 5 3 C4.34 3 3.68 3 3 3 C3 2.34 3 1.68 3 1 C2.01 0.67 1.02 0.34 0 0 Z " fill="#F0E9D7" transform="translate(156,201)"/>
<path d="M0 0 C-0.66 2.31 -1.32 4.62 -2 7 C-3.98 6.01 -5.96 5.02 -8 4 C-6.4425489 0.88509781 -3.40085499 0 0 0 Z " fill="#E1E3E4" transform="translate(91,198)"/>
<path d="M0 0 C0.68707555 2.49064888 1 4.37886292 1 7 C0.01 7 -0.98 7 -2 7 C-2 6.34 -2 5.68 -2 5 C-4.97 4.505 -4.97 4.505 -8 4 C-5.33440687 2.22293791 -2.9719385 1.12451727 0 0 Z " fill="#2A2E32" transform="translate(279,163)"/>
<path d="M0 0 C2.31 0.33 4.62 0.66 7 1 C6.67 2.32 6.34 3.64 6 5 C0.25 4.25 0.25 4.25 -2 2 C-1.34 2 -0.68 2 0 2 C0 1.34 0 0.68 0 0 Z " fill="#222328" transform="translate(136,105)"/>
<path d="M0 0 C1.9451 2.91765 2.45276317 4.62537285 3 8 C2.01 8.33 1.02 8.66 0 9 C-0.99 8.34 -1.98 7.68 -3 7 C-2.67 5.68 -2.34 4.36 -2 3 C-1.34 3 -0.68 3 0 3 C0 2.01 0 1.02 0 0 Z " fill="#333537" transform="translate(196,296)"/>
<path d="M0 0 C0.33 0.66 0.66 1.32 1 2 C1.66 2 2.32 2 3 2 C2.67 6.95 2.34 11.9 2 17 C1.67 17 1.34 17 1 17 C0.86722656 16.08476562 0.73445312 15.16953125 0.59765625 14.2265625 C0.42105469 13.03804688 0.24445313 11.84953125 0.0625 10.625 C-0.11152344 9.44164062 -0.28554687 8.25828125 -0.46484375 7.0390625 C-0.83462786 4.09297619 -0.83462786 4.09297619 -2 2 C-1.34 2 -0.68 2 0 2 C0 1.34 0 0.68 0 0 Z " fill="#404345" transform="translate(194,277)"/>
<path d="M0 0 C2.31 0 4.62 0 7 0 C3.25 3.875 3.25 3.875 1 5 C1 5.66 1 6.32 1 7 C0.01 7.33 -0.98 7.66 -2 8 C-1.47731534 5.23723823 -0.89130413 2.6739124 0 0 Z " fill="#ECE1D2" transform="translate(259,234)"/>
<path d="M0 0 C0 0.99 0 1.98 0 3 C-0.54269531 3.26554688 -1.08539063 3.53109375 -1.64453125 3.8046875 C-2.35996094 4.15789062 -3.07539063 4.51109375 -3.8125 4.875 C-4.52019531 5.22304687 -5.22789062 5.57109375 -5.95703125 5.9296875 C-8.21246418 7.0656486 -8.21246418 7.0656486 -11 9 C-11 8.01 -11 7.02 -11 6 C-10.38125 5.9175 -9.7625 5.835 -9.125 5.75 C-6.8234856 5.20005805 -6.8234856 5.20005805 -5.875 3 C-5.441875 2.01 -5.441875 2.01 -5 1 C-3 0 -3 0 0 0 Z " fill="#2B2C2F" transform="translate(154,234)"/>
<path d="M0 0 C0.99 0.99 1.98 1.98 3 3 C-0.25 4.625 -0.25 4.625 -4 6 C-5.32 5.34 -6.64 4.68 -8 4 C-5.36 2.68 -2.72 1.36 0 0 Z " fill="#2B2C2F" transform="translate(332,208)"/>
<path d="M0 0 C1.875 1.5625 1.875 1.5625 3 3 C1.741875 3.020625 0.48375 3.04125 -0.8125 3.0625 C-1.52019531 3.07410156 -2.22789062 3.08570313 -2.95703125 3.09765625 C-5 3 -5 3 -8 2 C-8 1.34 -8 0.68 -8 0 C-5.06317146 -1.46841427 -3.13175678 -0.76696084 0 0 Z " fill="#F8EEE5" transform="translate(276,197)"/>
<path d="M0 0 C2.64 0.33 5.28 0.66 8 1 C8 4 8 4 7 6 C1.25 4.25 1.25 4.25 -1 2 C-0.67 1.34 -0.34 0.68 0 0 Z " fill="#2D2D31" transform="translate(142,183)"/>
<path d="M0 0 C1.98 0 3.96 0 6 0 C6 1.32 6 2.64 6 4 C3.5 5.75 3.5 5.75 1 7 C0.67 4.69 0.34 2.38 0 0 Z " fill="#22160D" transform="translate(181,162)"/>
<path d="M0 0 C0.66 0 1.32 0 2 0 C2 0.66 2 1.32 2 2 C3.98 2 5.96 2 8 2 C8.33 2.99 8.66 3.98 9 5 C7.906875 4.979375 6.81375 4.95875 5.6875 4.9375 C2.05615809 4.81455548 2.05615809 4.81455548 -1 6 C-0.67 4.02 -0.34 2.04 0 0 Z " fill="#282D34" transform="translate(210,154)"/>
<path d="M0 0 C3.08089673 2.77280706 4.68775452 5.06326356 6 9 C5.01 9 4.02 9 3 9 C0.72162458 6.72162458 0.03353711 5.49187763 -0.1875 2.25 C-0.125625 1.5075 -0.06375 0.765 0 0 Z " fill="#2C2E30" transform="translate(161,133)"/>
<path d="M0 0 C2.475 0.99 2.475 0.99 5 2 C5 3.98 5 5.96 5 8 C4.34 8 3.68 8 3 8 C2.67 8.66 2.34 9.32 2 10 C1.34 6.7 0.68 3.4 0 0 Z " fill="#343435" transform="translate(143,123)"/>
<path d="M0 0 C2.21736634 1.10868317 4.03617993 2.49440461 6 4 C5 6 5 6 4 7 C0.63279613 5.60667426 -0.9859524 4.0210714 -3 1 C-2.01 0.67 -1.02 0.34 0 0 Z " fill="#292B2E" transform="translate(174,123)"/>
<path d="M0 0 C1.32 0 2.64 0 4 0 C4.66 1.98 5.32 3.96 6 6 C3.03 5.01 0.06 4.02 -3 3 C-2.01 2.01 -1.02 1.02 0 0 Z " fill="#272A2B" transform="translate(335,194)"/>
<path d="M0 0 C0.721875 0.103125 1.44375 0.20625 2.1875 0.3125 C0.0197078 2.58868181 -2.13977719 4.64204824 -4.8125 6.3125 C-5.8025 5.9825 -6.7925 5.6525 -7.8125 5.3125 C-3.50480769 0.38942308 -3.50480769 0.38942308 0 0 Z " fill="#E4E6EB" transform="translate(214.8125,157.6875)"/>
<path d="M0 0 C0.98120464 3.05263664 0.98120464 4.94736336 0 8 C0.99 8.33 1.98 8.66 3 9 C2.67 10.65 2.34 12.3 2 14 C-0.6189021 11.3810979 -1.22382048 9.47468355 -1.25 5.875 C-1 2 -1 2 0 0 Z " fill="#E6CAAD" transform="translate(245,145)"/>
<path d="M0 0 C0.99 0.33 1.98 0.66 3 1 C2.34 2.65 1.68 4.3 1 6 C-1.475 5.01 -1.475 5.01 -4 4 C-2.68 2.68 -1.36 1.36 0 0 Z " fill="#E5E7E8" transform="translate(157,268)"/>
<path d="M0 0 C0.66 0.33 1.32 0.66 2 1 C1.195625 1.61875 0.39125 2.2375 -0.4375 2.875 C-3.03874519 4.74164041 -3.03874519 4.74164041 -4 7 C-6.0625 7.625 -6.0625 7.625 -8 8 C-8 6.68 -8 5.36 -8 4 C-6.71349294 3.30289269 -5.42059335 2.61757124 -4.125 1.9375 C-3.40570313 1.55464844 -2.68640625 1.17179688 -1.9453125 0.77734375 C-1.30335938 0.52082031 -0.66140625 0.26429688 0 0 Z " fill="#EBECEF" transform="translate(288,184)"/>
<path d="M0 0 C2.45811625 3.68717438 2.31118164 5.64345704 2 10 C1.01 11.485 1.01 11.485 0 13 C-0.66 12.67 -1.32 12.34 -2 12 C-1.67 10.35 -1.34 8.7 -1 7 C-0.34 7 0.32 7 1 7 C0.67 4.69 0.34 2.38 0 0 Z " fill="#EACEAB" transform="translate(183,144)"/>
<path d="M0 0 C0.99 0.33 1.98 0.66 3 1 C3 1.66 3 2.32 3 3 C3.66 3.33 4.32 3.66 5 4 C5.625 6.5625 5.625 6.5625 6 9 C4.68 9.33 3.36 9.66 2 10 C2 8.35 2 6.7 2 5 C1.34 4.67 0.68 4.34 0 4 C0 2.68 0 1.36 0 0 Z " fill="#F4DEC3" transform="translate(245,149)"/>
<path d="M0 0 C3.465 1.485 3.465 1.485 7 3 C5.68 4.32 4.36 5.64 3 7 C1 5 1 5 0 3 C0 2.01 0 1.02 0 0 Z " fill="#E6EAEA" transform="translate(336,198)"/>
<path d="M0 0 C1.5 1.25 1.5 1.25 3 3 C3 4.32 3 5.64 3 7 C0.125 7.625 0.125 7.625 -3 8 C-3.66 7.34 -4.32 6.68 -5 6 C-3.35 6 -1.7 6 0 6 C0 4.02 0 2.04 0 0 Z " fill="#B79875" transform="translate(187,154)"/>
<path d="M0 0 C0.99 0.33 1.98 0.66 3 1 C3.6875 3.0625 3.6875 3.0625 4 5 C3.01 5 2.02 5 1 5 C1 5.66 1 6.32 1 7 C0.01 7 -0.98 7 -2 7 C-1.34 4.69 -0.68 2.38 0 0 Z " fill="#383A3C" transform="translate(214,94)"/>
<path d="M0 0 C1.4540625 0.0309375 1.4540625 0.0309375 2.9375 0.0625 C2.9375 0.7225 2.9375 1.3825 2.9375 2.0625 C0.6647325 3.55774178 -1.6304943 4.84649715 -4.0625 6.0625 C-4.105221 4.39638095 -4.10313832 2.72867115 -4.0625 1.0625 C-3.0625 0.0625 -3.0625 0.0625 0 0 Z " fill="#D4CBBA" transform="translate(247.0625,244.9375)"/>
<path d="M0 0 C0.33 0.99 0.66 1.98 1 3 C3.00016466 4.20882096 3.00016466 4.20882096 5 5 C5 5.99 5 6.98 5 8 C3.68 8.33 2.36 8.66 1 9 C-1.125 2.25 -1.125 2.25 0 0 Z " fill="#E8DED5" transform="translate(168,238)"/>
<path d="M0 0 C2.6875 -0.375 2.6875 -0.375 6 0 C8.06398076 1.823983 9.39041053 3.72763839 11 6 C7 6 7 6 5.25 4.625 C4 3 4 3 4 1 C2.68 0.67 1.36 0.34 0 0 Z " fill="#C2AD98" transform="translate(166,233)"/>
<path d="M0 0 C3.63 0.33 7.26 0.66 11 1 C11 1.33 11 1.66 11 2 C8.36 2.33 5.72 2.66 3 3 C3.33 3.66 3.66 4.32 4 5 C2.0625 4.625 2.0625 4.625 0 4 C-0.33 3.34 -0.66 2.68 -1 2 C-0.67 1.34 -0.34 0.68 0 0 Z " fill="#2E3033" transform="translate(120,221)"/>
<path d="M0 0 C-0.99 0.495 -0.99 0.495 -2 1 C-2 1.99 -2 2.98 -2 4 C-6.75 3.25 -6.75 3.25 -9 1 C-5.57367167 -0.61798838 -3.61944899 -1.34053666 0 0 Z " fill="#2E2F34" transform="translate(159,113)"/>
<path d="M0 0 C0.66 0.33 1.32 0.66 2 1 C2 1.66 2 2.32 2 3 C2.66 3 3.32 3 4 3 C4.33 4.65 4.66 6.3 5 8 C4.01 8.495 4.01 8.495 3 9 C0.9375 6.1875 0.9375 6.1875 -1 3 C-0.67 2.01 -0.34 1.02 0 0 Z " fill="#272B2D" transform="translate(224,263)"/>
<path d="M0 0 C0.99 0.99 1.98 1.98 3 3 C1.02 5.97 1.02 5.97 -1 9 C-1.66 8.67 -2.32 8.34 -3 8 C-1.125 2.25 -1.125 2.25 0 0 Z " fill="#E6E8E7" transform="translate(150,250)"/>
<path d="M0 0 C0.66 0.33 1.32 0.66 2 1 C1.67 1.66 1.34 2.32 1 3 C1.99 3.33 2.98 3.66 4 4 C0.7 4.66 -2.6 5.32 -6 6 C-2.25 1.125 -2.25 1.125 0 0 Z " fill="#2D2D32" transform="translate(162,230)"/>
<path d="M0 0 C0.6875 1.625 0.6875 1.625 1 4 C-0.4375 7.25 -0.4375 7.25 -2 10 C-2.66 9.67 -3.32 9.34 -4 9 C-4 8.01 -4 7.02 -4 6 C-3.01 6 -2.02 6 -1 6 C-1.33 4.35 -1.66 2.7 -2 1 C-1.34 0.67 -0.68 0.34 0 0 Z " fill="#303336" transform="translate(204,176)"/>
<path d="M0 0 C0.66 0 1.32 0 2 0 C2 0.99 2 1.98 2 3 C3.32 3.66 4.64 4.32 6 5 C6 5.99 6 6.98 6 8 C5.01 8.33 4.02 8.66 3 9 C2.01 6.03 1.02 3.06 0 0 Z " fill="#FBFCFA" transform="translate(218,133)"/>
<path d="M0 0 C0.99 0.33 1.98 0.66 3 1 C3 3.97 3 6.94 3 10 C0.3144406 7.3144406 -0.06049974 4.62378672 -1 1 C-0.67 0.67 -0.34 0.34 0 0 Z " fill="#2A2B2D" transform="translate(147,133)"/>
<path d="M0 0 C1.98 1.65 3.96 3.3 6 5 C5.01 6.485 5.01 6.485 4 8 C2 6.8125 2 6.8125 0 5 C-0.25 2.3125 -0.25 2.3125 0 0 Z " fill="#282A2F" transform="translate(252,271)"/>
<path d="M0 0 C0.99 0.33 1.98 0.66 3 1 C2.67 1.66 2.34 2.32 2 3 C2.66 3 3.32 3 4 3 C3.67 4.32 3.34 5.64 3 7 C2.01 7 1.02 7 0 7 C0 4.69 0 2.38 0 0 Z " fill="#2B2D30" transform="translate(195,272)"/>
<path d="M0 0 C1.5625 1.1875 1.5625 1.1875 3 3 C2.6875 5.6875 2.6875 5.6875 2 8 C1.01 8 0.02 8 -1 8 C-2.6875 5.5 -2.6875 5.5 -4 3 C-3.01 3 -2.02 3 -1 3 C-0.67 3.66 -0.34 4.32 0 5 C0 3.35 0 1.7 0 0 Z " fill="#B2B4B5" transform="translate(235,186)"/>
<path d="M0 0 C2.97 0.495 2.97 0.495 6 1 C6 1.66 6 2.32 6 3 C5.01 3 4.02 3 3 3 C2.67 4.98 2.34 6.96 2 9 C1.67 9 1.34 9 1 9 C0.67 6.03 0.34 3.06 0 0 Z " fill="#343638" transform="translate(207,178)"/>
<path d="M0 0 C0.66 0.66 1.32 1.32 2 2 C1.67 2.66 1.34 3.32 1 4 C2.32 4.33 3.64 4.66 5 5 C3 6 3 6 1.0546875 5.44140625 C0.33539063 5.15136719 -0.38390625 4.86132812 -1.125 4.5625 C-1.84945312 4.27503906 -2.57390625 3.98757812 -3.3203125 3.69140625 C-4.15175781 3.34916016 -4.15175781 3.34916016 -5 3 C-2 1 -2 1 0 0 Z " fill="#DBDBDC" transform="translate(155,161)"/>
<path d="M0 0 C2.31 0 4.62 0 7 0 C5.25 4.875 5.25 4.875 3 6 C2.01 4.02 1.02 2.04 0 0 Z " fill="#EFEFEE" transform="translate(201,133)"/>
<path d="M0 0 C0.99 1.32 1.98 2.64 3 4 C2.34 5.32 1.68 6.64 1 8 C-1.1385485 5.8614515 -1.42655063 4.86724686 -2 2 C-1.34 2 -0.68 2 0 2 C0 1.34 0 0.68 0 0 Z " fill="#343538" transform="translate(209,326)"/>
<path d="M0 0 C1.99097846 2.98646769 2.94124926 5.59687262 4 9 C3.01 9.33 2.02 9.66 1 10 C0.63720544 8.71073008 0.28503302 7.41846728 -0.0625 6.125 C-0.35833984 5.04605469 -0.35833984 5.04605469 -0.66015625 3.9453125 C-1 2 -1 2 0 0 Z " fill="#2A2D2F" transform="translate(203,313)"/>
<path d="M0 0 C0.763125 0.20625 1.52625 0.4125 2.3125 0.625 C2.3125 1.615 2.3125 2.605 2.3125 3.625 C-0.5625 3.75 -0.5625 3.75 -3.6875 3.625 C-4.3475 2.965 -5.0075 2.305 -5.6875 1.625 C-2.6875 -0.375 -2.6875 -0.375 0 0 Z " fill="#D3BDA7" transform="translate(182.6875,244.375)"/>
<path d="M0 0 C0.66 0.99 1.32 1.98 2 3 C-1 5 -1 5 -3.6875 4.625 C-4.450625 4.41875 -5.21375 4.2125 -6 4 C-4.03617993 2.49440461 -2.21736634 1.10868317 0 0 Z " fill="#2D3135" transform="translate(339,204)"/>
<path d="M0 0 C0.625 1.8125 0.625 1.8125 1 4 C0.01 5.485 0.01 5.485 -1 7 C-1.66 7 -2.32 7 -3 7 C-3.33 7.66 -3.66 8.32 -4 9 C-4 4.31908701 -3.00354129 3.37898396 0 0 Z " fill="#E3E4E6" transform="translate(194,197)"/>
<path d="M0 0 C0.33 0.99 0.66 1.98 1 3 C0.01 3 -0.98 3 -2 3 C-2.33 3.99 -2.66 4.98 -3 6 C-5 5 -5 5 -6 2 C-4.02 1.34 -2.04 0.68 0 0 Z " fill="#2D261D" transform="translate(260,169)"/>
<path d="M0 0 C0.99 0.495 0.99 0.495 2 1 C2 1.66 2 2.32 2 3 C2.66 3 3.32 3 4 3 C4.33 4.65 4.66 6.3 5 8 C3.68 8 2.36 8 1 8 C1.33 6.68 1.66 5.36 2 4 C1.34 4 0.68 4 0 4 C0 2.68 0 1.36 0 0 Z " fill="#15181C" transform="translate(212,123)"/>
<path d="M0 0 C0.99 0 1.98 0 3 0 C3 1.32 3 2.64 3 4 C2.34 4 1.68 4 1 4 C0.67 4.66 0.34 5.32 0 6 C-0.99 6.495 -0.99 6.495 -2 7 C-2.33 5.35 -2.66 3.7 -3 2 C-2.01 2.33 -1.02 2.66 0 3 C0 2.01 0 1.02 0 0 Z " fill="#13191B" transform="translate(217,112)"/>
<path d="M0 0 C0.66 0.33 1.32 0.66 2 1 C2 2.65 2 4.3 2 6 C0.68 6.33 -0.64 6.66 -2 7 C-1.125 2.25 -1.125 2.25 0 0 Z " fill="#202528" transform="translate(194,293)"/>
<path d="M0 0 C1.98 0.495 1.98 0.495 4 1 C4.33 2.65 4.66 4.3 5 6 C2.13275314 5.42655063 1.1385485 5.1385485 -1 3 C-0.34 3 0.32 3 1 3 C0.67 2.01 0.34 1.02 0 0 Z " fill="#2F2F33" transform="translate(281,270)"/>
<path d="M0 0 C0.66 0.33 1.32 0.66 2 1 C1.67 2.65 1.34 4.3 1 6 C0.01 6 -0.98 6 -2 6 C-1.125 1.125 -1.125 1.125 0 0 Z " fill="#171B1C" transform="translate(210,263)"/>
<path d="M0 0 C2.34058637 2.12780579 3.70700306 4.11562221 5 7 C3.35 7.33 1.7 7.66 0 8 C0.33 6.68 0.66 5.36 1 4 C0.34 3.67 -0.32 3.34 -1 3 C-0.67 2.01 -0.34 1.02 0 0 Z " fill="#E4E7E8" transform="translate(258,255)"/>
<path d="M0 0 C5.75 2.625 5.75 2.625 8 6 C5.69 5.34 3.38 4.68 1 4 C0.67 2.68 0.34 1.36 0 0 Z " fill="#313234" transform="translate(271,251)"/>
<path d="M0 0 C-0.33 1.32 -0.66 2.64 -1 4 C-1.99 4 -2.98 4 -4 4 C-4.66 2.68 -5.32 1.36 -6 0 C-3 -1 -3 -1 0 0 Z " fill="#1C1A1C" transform="translate(186,239)"/>
<path d="M0 0 C0.66 0.33 1.32 0.66 2 1 C1.690625 1.7425 1.38125 2.485 1.0625 3.25 C0.1905075 5.50692176 -0.47667007 7.6450153 -1 10 C-1.66 9.67 -2.32 9.34 -3 9 C-2.69181644 7.68647977 -2.37832335 6.37420428 -2.0625 5.0625 C-1.88847656 4.33160156 -1.71445313 3.60070312 -1.53515625 2.84765625 C-1 1 -1 1 0 0 Z " fill="#191A17" transform="translate(243,238)"/>
<path d="M0 0 C1.65 0 3.3 0 5 0 C5 3.20395416 4.25664978 5.09399739 3 8 C2.67 8 2.34 8 2 8 C2 6.02 2 4.04 2 2 C1.34 2 0.68 2 0 2 C0 1.34 0 0.68 0 0 Z " fill="#292D30" transform="translate(208,234)"/>
<path d="M0 0 C3.465 1.485 3.465 1.485 7 3 C6.01 3.99 5.02 4.98 4 6 C2.35 4.35 0.7 2.7 -1 1 C-0.67 0.67 -0.34 0.34 0 0 Z " fill="#242528" transform="translate(96,209)"/>
<path d="M0 0 C1.65 0.99 3.3 1.98 5 3 C3 5 3 5 1.0546875 5.1953125 C-0.96354167 5.13020833 -2.98177083 5.06510417 -5 5 C-5 4.67 -5 4.34 -5 4 C-3.02 4 -1.04 4 1 4 C0.67 2.68 0.34 1.36 0 0 Z " fill="#EDD8C5" transform="translate(159,195)"/>
<path d="M0 0 C0.99 0.99 1.98 1.98 3 3 C-1.75 6 -1.75 6 -4 6 C-3.34 4.68 -2.68 3.36 -2 2 C-1.34 2 -0.68 2 0 2 C0 1.34 0 0.68 0 0 Z " fill="#323532" transform="translate(268,191)"/>
<path d="M0 0 C0.99 0 1.98 0 3 0 C2.42655063 2.86724686 2.1385485 3.8614515 0 6 C-0.99 5.67 -1.98 5.34 -3 5 C-1.6875 2.5 -1.6875 2.5 0 0 Z " fill="#ECEDF0" transform="translate(198,191)"/>
<path d="M0 0 C2.91517292 1.07401108 4.77810176 1.77810176 7 4 C6.01 4 5.02 4 4 4 C3.67 4.66 3.34 5.32 3 6 C3 5.34 3 4.68 3 4 C1.68 3.34 0.36 2.68 -1 2 C-0.67 1.34 -0.34 0.68 0 0 Z " fill="#3B2313" transform="translate(177,158)"/>
<path d="M0 0 C2.475 0.495 2.475 0.495 5 1 C5 1.99 5 2.98 5 4 C2 4 2 4 0 3 C0 2.01 0 1.02 0 0 Z " fill="#342D26" transform="translate(172,155)"/>
<path d="M0 0 C0.33 0.66 0.66 1.32 1 2 C1.99 2 2.98 2 4 2 C3.67 3.32 3.34 4.64 3 6 C1.02 5.34 -0.96 4.68 -3 4 C-2.01 2.68 -1.02 1.36 0 0 Z " fill="#22282B" transform="translate(164,148)"/>
<path d="M0 0 C1.5625 1.1875 1.5625 1.1875 3 3 C2.6875 5.6875 2.6875 5.6875 2 8 C1.34 7.67 0.68 7.34 0 7 C0 6.34 0 5.68 0 5 C-0.66 4.67 -1.32 4.34 -2 4 C-1.34 2.68 -0.68 1.36 0 0 Z " fill="#2E2E31" transform="translate(203,137)"/>
<path d="M0 0 C2.475 0.99 2.475 0.99 5 2 C5 2.99 5 3.98 5 5 C3.68 5.33 2.36 5.66 1 6 C0.67 4.02 0.34 2.04 0 0 Z " fill="#2B2C30" transform="translate(258,277)"/>
<path d="M0 0 C0.99 0.33 1.98 0.66 3 1 C3.6875 3.0625 3.6875 3.0625 4 5 C3.01 4.67 2.02 4.34 1 4 C0.67 4.99 0.34 5.98 0 7 C-0.93423645 3.98968256 -1.04449911 3.13349732 0 0 Z " fill="#2D2C2C" transform="translate(242,252)"/>
<path d="M0 0 C2.475 0.495 2.475 0.495 5 1 C4.67 2.65 4.34 4.3 4 6 C2.62437146 4.71034824 1.29233607 3.37310707 0 2 C0 1.34 0 0.68 0 0 Z " fill="#EBDED6" transform="translate(179,251)"/>
<path d="M0 0 C0.66 0 1.32 0 2 0 C0.87548273 2.9719385 -0.22293791 5.33440687 -2 8 C-2.66 8 -3.32 8 -4 8 C-2.87548273 5.0280615 -1.77706209 2.66559313 0 0 Z " fill="#E2E3E5" transform="translate(216,231)"/>
<path d="M0 0 C0.66 0.33 1.32 0.66 2 1 C2 2.65 2 4.3 2 6 C1.34 6 0.68 6 0 6 C0 6.66 0 7.32 0 8 C-0.66 8 -1.32 8 -2 8 C-2.33 7.01 -2.66 6.02 -3 5 C-2.505 4.54625 -2.01 4.0925 -1.5 3.625 C0.22609337 2.12364481 0.22609337 2.12364481 0 0 Z " fill="#14191B" transform="translate(169,147)"/>
<path d="M0 0 C1.9451 2.91765 2.45276317 4.62537285 3 8 C1.68 7.34 0.36 6.68 -1 6 C-1.042721 4.33388095 -1.04063832 2.66617115 -1 1 C-0.67 0.67 -0.34 0.34 0 0 Z " fill="#FAF6EB" transform="translate(217,135)"/>
<path d="M0 0 C0.66 0.33 1.32 0.66 2 1 C1.34 2.32 0.68 3.64 0 5 C-1.65 4.01 -3.3 3.02 -5 2 C-4.360625 1.855625 -3.72125 1.71125 -3.0625 1.5625 C-1.02454854 1.18992819 -1.02454854 1.18992819 0 0 Z " fill="#323033" transform="translate(160,191)"/>
<path d="M0 0 C1.9375 0.375 1.9375 0.375 4 1 C4.33 1.66 4.66 2.32 5 3 C7.02463255 3.65213292 7.02463255 3.65213292 9 4 C8.34 4.66 7.68 5.32 7 6 C4.0625 4.6875 4.0625 4.6875 1 3 C0.67 2.01 0.34 1.02 0 0 Z " fill="#323436" transform="translate(324,190)"/>
<path d="M0 0 C4.95 0.99 4.95 0.99 10 2 C10 2.33 10 2.66 10 3 C7.03 3 4.06 3 1 3 C0.67 2.01 0.34 1.02 0 0 Z " fill="#34251F" transform="translate(166,169)"/>
<path d="M0 0 C0.66 0.33 1.32 0.66 2 1 C2 1.99 2 2.98 2 4 C2.99 4.66 3.98 5.32 5 6 C3.02 6 1.04 6 -1 6 C-0.67 4.02 -0.34 2.04 0 0 Z " fill="#CCB18A" transform="translate(241,155)"/>
<path d="M0 0 C0.99 0.33 1.98 0.66 3 1 C2.01 2.485 2.01 2.485 1 4 C-0.65 3.67 -2.3 3.34 -4 3 C-2.1875 1.4375 -2.1875 1.4375 0 0 Z " fill="#EAEBEB" transform="translate(266,152)"/>
<path d="M0 0 C3 2 3 2 3.6875 4.625 C3.790625 5.40875 3.89375 6.1925 4 7 C3.01 7.495 3.01 7.495 2 8 C0.4375 6.25 0.4375 6.25 -1 4 C-0.6875 1.75 -0.6875 1.75 0 0 Z " fill="#1C1618" transform="translate(187,145)"/>
<path d="M0 0 C2.2344598 4.03292745 2.54496743 7.44967434 3 12 C0.89366282 10.29171079 0.06198392 9.47851584 -0.29296875 6.73828125 C-0.25816406 5.93777344 -0.22335938 5.13726562 -0.1875 4.3125 C-0.16042969 3.50425781 -0.13335937 2.69601563 -0.10546875 1.86328125 C-0.07066406 1.24839844 -0.03585938 0.63351563 0 0 Z " fill="#47484C" transform="translate(128,106)"/>
<path d="M0 0 C1.32 0 2.64 0 4 0 C4 0.99 4 1.98 4 3 C2.35 3.33 0.7 3.66 -1 4 C-0.67 2.68 -0.34 1.36 0 0 Z " fill="#232528" transform="translate(272,113)"/>
<path d="M0 0 C0.99 0.33 1.98 0.66 3 1 C2.67 2.98 2.34 4.96 2 7 C1.34 7 0.68 7 0 7 C-0.38133299 5.0085944 -0.71325582 3.00720923 -1 1 C-0.67 0.67 -0.34 0.34 0 0 Z " fill="#25292C" transform="translate(235,109)"/>
</svg>
